<?xml version="1.0" encoding="UTF-8"?>
<svg id="a" xmlns="http://www.w3.org/2000/svg" version="1.1" viewBox="0 0 117 117">
  <!-- Generator: Adobe Illustrator 29.5.0, SVG Export Plug-In . SVG Version: 2.1.0 Build 137)  -->
  <defs>
    <style>
      .st0 {
        fill: #010101;
      }
    </style>
  </defs>
  <path class="st0" d="M99.8,38.3c-.8-.7-1.8-1-2.9-1.1.6-2.2,0-4.6-1.9-6-1.1-.9-2.5-1.3-3.9-1h-.4c-.3-1.1-.9-2-1.9-2.8-1.1-.9-2.5-1.3-3.9-1-.8.1-1.6.5-2.3,1-.3-.6-.8-1.1-1.3-1.5-1.1-.9-2.5-1.3-3.9-1-1.4.2-2.7,1-3.5,2.3h0c0,.2-.2.4-.3.5h0l-.9,1.3-10.5,15.1s-.3.5-.8,1.2c-.2-3.3-.6-6.2-1.5-7.4-2.2-3.1-9.1-4.5-10.5-4.7-.4,0-.8,0-1.2.2l-3.9-5.8-.6-.8c-1.8-2.2-4.9-2.6-7.2-.8-.7.5-1.1,1.2-1.5,1.9-1.8-1-4-.9-5.7.4-1.3,1-2,2.5-2.1,4.1-1.1,0-2.2.3-3.1,1.1-1.6,1.3-2.3,3.3-2,5.3-.8,0-1.6.4-2.4,1-2.3,1.8-2.8,5.2-1.2,7.7h0c.1.3.2.5.5.8l11,16.1c.6,1.1,4.5,8.1,13,8.8l3.2,4.8-8.5,13.7h4.2l6.4-10.6,6.4,10.6h4.2l-14-21.9h-.9c-7.5-.3-10.8-6.8-10.9-7.1l-11.3-16.5-.2-.2h0l-.2-.4c-.6-1-.5-2.3.4-3,.6-.5,1.5-.5,2.1,0l4.3,6.2h0s.1.2.2.2h1.6c.1,0,.3,0,.4-.2h.3s0,0,.1-.3h0v-.3h0v-.3h0v-1.3h0l-2.7-4-1.5-2.2h0c0-.2-.1-.2-.2-.3l-.4-.6-.2-.2h0l-.2-.4c-.6-.9-.5-2.3.4-3,.6-.5,1.4-.5,2,0,.1.2.2.4.4.6l5.2,7.6h0s0,.2.2.2h1.5s.3,0,.4-.2h.2l.2-.2h0v-.2h0v-.3h0v-.3h0v-.3h0v-.3h0v-.2l-4.9-7.3-.6-.8s-.1,0-.2-.2h0c-.6-.9-.5-2.3.4-3,.7-.6,1.7-.4,2.3.2l1.5,2.2s0,.2.2.3h0c0,.3.2.5.5.8l1.8,2.6,1.9,2.8c.5.8,1.6,1,2.4.5h0l.2-.2h0c.6-.6.7-1.5.2-2.2l-1.5-2.2-3-4.4c-.3-.9,0-2,.6-2.6.7-.6,1.7-.4,2.3.2l9.7,14.4c.3.5.9.8,1.4.8s.7,0,1-.3c.8-.5,1-1.6.5-2.4l-2.9-4.3c2.6.7,5.6,1.8,6.4,2.9.8,1.1,1,7.1.9,13.4-.6,2.7-.6,5.5.8,7.9h0l20.2,30.3h4.2l-8.6-13.5,3-4.7c4.2-1.5,15.4-5.6,17.2-8.5,2-3.1,1.5-9.9,1.4-11v-1.4l4.5-6.2.6-.9c1.3-2.4.7-5.6-1.4-7.2h.7ZM91.6,33.7c.4,0,.9,0,1.3.3.8.6,1,1.9.6,2.7l-5.7,8.5c-.2.2-.5.3-.8.4-.4,0-.9,0-1.3-.3-.8-.6-1-1.9-.6-2.7l5.3-8s0-.3.2-.4c.3-.3.6-.5,1-.5h0ZM85.4,30c.4,0,.9,0,1.3.3.7.5,1,1.6.7,2.4,0,0-.2.3-.4.5l-.2.2-4.7,7.1v.2h-.2s-.2.2-.2.3c-.3.4-.7.7-1.2.8-.4,0-.9,0-1.3-.3-.7-.5-.9-1.4-.7-2.2h0c0-.2.3-.4.5-.7l1.2-1.8,1.5-2.3.9-1.2v-.2c.2-.2.3-.3.3-.5l.9-1.3v-.3h.2s.2-.2.2-.3c.3-.4.7-.7,1.2-.8h0ZM77.9,28.4c.4,0,.9,0,1.3.3.6.5.9,1.4.7,2.2l-3.6,5.3-.5.8c0,.2-.2.4-.2.6-.3.4-.7.6-1.1.7-.4,0-.9,0-1.3-.3-.8-.6-1-1.9-.6-2.7l3-4.5.6-.9.2-.3h0s.2-.2.2-.3c.3-.4.7-.7,1.2-.8h.1ZM91.9,63.2c-.9,1.4-9,4.8-16,7.2l-.6.2-2.9,4.5-10.8-15.6c-.2-.4-.4-.8-.5-1.3v-4.5c.8-3.1,2.5-6.1,3.5-7.5l4.9-7c.3.6.8,1.1,1.3,1.5.9.7,2,1.1,3.1,1.1s.5,0,.8,0h.4c.3,1,.9,2,1.8,2.6.9.7,2,1.1,3.1,1.1s.5,0,.8,0h.5c.3,1.1.9,2.1,1.9,2.8.6.5,1.2.8,1.9.9-.6,1.5-.9,3.8-.6,7.1-4-.9-9.6-.6-13.3,4.6-.6.8-.4,1.9.4,2.4.8.6,1.9.4,2.4-.4,4.2-5.9,11.5-2.7,11.8-2.5l3,1.4-.5-3.2c-.7-4.3-.3-8.9.7-9.2,1-.3,1.4,0,1.7,0,1.2.9,1.7,3.7,1.7,5h0c.2,2.6.2,7.3-.8,8.9h.3ZM98.2,43.8l-.4.7-2.9,4c-.4-.8-1-1.5-1.8-2.1-.2-.2-.5-.3-.8-.5l2.5-3.8v-.2h.2s.2-.2.2-.3c.3-.4.7-.7,1.2-.8.4,0,.9,0,1.3.3.8.6,1,1.9.6,2.7h0Z"/>
</svg>