<?xml version="1.0" encoding="UTF-8"?>
<svg id="a" data-name="Layer 1" xmlns="http://www.w3.org/2000/svg" width="117.019" height="117.02" xmlns:xlink="http://www.w3.org/1999/xlink" viewBox="0 0 117.019 117.02">
  <defs>
    <clipPath id="b">
      <path d="M-237.957,199.567h8.503c.583-.083.586.39.549.978v8.088" fill="#231f20"/>
    </clipPath>
    <clipPath id="c">
      <rect x="-318.67" y="-138.203" width="508" height="450" fill="#231f20"/>
    </clipPath>
  </defs>
  <g>
    <path d="M-237.957,199.567h8.503c.583-.083.586.39.549.978v8.088" fill="#231f20"/>
    <g clip-path="url(#b)">
      <g>
        <rect x="-318.67" y="-138.203" width="508" height="450" fill="#231f20"/>
        <g clip-path="url(#c)">
          <g>
            <g>
              <path d="M62.047,86.653c-.017,0-.034,0-.051-.001-.575-.027-1.019-.516-.99-1.09.217-4.494.074-9.857-.482-10.679-.618-.861-3.278-1.684-4.97-1.993-.565-.103-.941-.646-.838-1.211s.641-.938,1.211-.838c.817.149,4.965.984,6.289,2.829,1.261,1.755.985,9.624.87,11.993-.026.558-.487.991-1.039.991Z" fill="#231f20"/>
              <path d="M57.565,77.356c-.334,0-.663-.161-.864-.458l-5.85-8.622c-.333-.406-.923-.484-1.364-.14-.521.406-.635,1.231-.25,1.801.047.07.089.141.129.211l.143.191,2.291,3.285c.329.472.213,1.121-.259,1.45-.472.33-1.12.213-1.45-.259l-2.244-3.218c-.136-.151-.224-.303-.285-.41-1.042-1.552-.73-3.62.643-4.693,1.323-1.034,3.209-.813,4.292.503l.35.473,5.582,8.261c.321.477.196,1.124-.28,1.446-.179.121-.382.179-.582.179Z" fill="#231f20"/>
              <path d="M47.521,77.937c-.331,0-.655-.157-.857-.449l-3.138-4.541c-.134-.149-.221-.298-.281-.404l-.054-.088c-.991-1.468-.68-3.536.695-4.609,1.321-1.033,3.208-.812,4.29.503l.35.474,3.264,4.829c.321.477.196,1.124-.28,1.446-.478.323-1.125.197-1.446-.28l-3.531-5.19c-.335-.406-.925-.483-1.363-.139-.521.407-.636,1.231-.251,1.801.046.067.088.139.13.211l.145.195,3.185,4.609c.327.474.209,1.122-.265,1.449-.181.125-.387.185-.591.185Z" fill="#231f20"/>
              <path d="M44.116,80.597c-.33,0-.655-.156-.857-.448l-2.84-4.1c-.136-.15-.223-.302-.284-.409-1.042-1.552-.73-3.62.643-4.693,1.323-1.034,3.209-.814,4.292.503l.35.474,2.966,4.388c.321.477.196,1.124-.28,1.446-.477.323-1.125.196-1.446-.28l-3.233-4.75c-.334-.405-.922-.484-1.364-.139-.521.406-.635,1.231-.25,1.801.047.07.089.141.129.211l.145.194,2.888,4.167c.327.473.21,1.122-.264,1.449-.181.125-.388.186-.592.186Z" fill="#231f20"/>
              <path d="M70.01,98.701c-.189,0-.382-.052-.554-.16-.487-.306-.633-.949-.327-1.436l2.426-3.854.349-.119c4.194-1.434,9.054-3.521,9.602-4.344.63-.991.646-3.776.51-5.299-.026-.81-.309-2.518-1.039-3.047-.159-.116-.435-.25-1.011-.081-.639.189-.854,2.919-.437,5.513l.312,1.939-1.78-.828c-.183-.083-4.559-2.033-7.055,1.524-.331.471-.979.584-1.451.254-.471-.331-.584-.98-.254-1.451,2.204-3.142,5.599-3.321,7.971-2.776-.176-2.245-.045-5.538,2.104-6.173,1.345-.396,2.278-.004,2.827.395,1.755,1.276,1.882,4.272,1.891,4.61.039.407.383,4.627-.83,6.537-1.107,1.745-7.791,4.195-10.337,5.077l-2.033,3.232c-.198.314-.537.487-.883.487Z" fill="#231f20"/>
              <path d="M79.799,79.757c-.2,0-.403-.058-.582-.179-.477-.322-.602-.969-.28-1.446l3.499-5.215c.287-.525.154-1.269-.33-1.646-.224-.175-.501-.249-.761-.206-.284.045-.538.214-.715.476-.049.071-.098.135-.146.197l-.129.209-3.092,4.682c-.317.481-.965.611-1.443.295-.479-.317-.612-.963-.295-1.443l3.048-4.615c.09-.183.198-.32.273-.417.562-.82,1.312-1.306,2.173-1.442.842-.132,1.685.087,2.369.621,1.288,1.007,1.652,2.872.847,4.338l-.309.501-3.263,4.83c-.201.298-.53.458-.864.458Z" fill="#231f20"/>
              <path d="M76.393,77.096c-.2,0-.403-.058-.582-.179-.477-.322-.602-.969-.28-1.446l3.201-4.773c.287-.525.154-1.269-.33-1.647-.224-.176-.496-.248-.761-.206-.284.045-.538.214-.715.476-.049.071-.098.135-.146.197l-.128.208-2.793,4.24c-.316.48-.962.613-1.443.297-.48-.316-.613-.962-.297-1.442l2.749-4.174c.091-.183.199-.32.274-.417.562-.82,1.312-1.306,2.173-1.442.844-.132,1.685.087,2.369.621,1.288,1.007,1.652,2.872.847,4.338l-.309.501-2.965,4.389c-.201.298-.53.458-.864.458Z" fill="#231f20"/>
              <path d="M62.451,88.195c-.364,0-.718-.191-.909-.531-2.276-4.052,1.844-9.983,2.021-10.234l6.781-9.725c.088-.174.191-.305.264-.398.564-.824,1.315-1.309,2.177-1.445.842-.132,1.685.087,2.368.621,1.288,1.008,1.651,2.873.847,4.338l-.061.097-.514.731-1.573,2.328c-.322.477-.97.603-1.446.28-.477-.322-.602-.969-.28-1.446l2.071-3.037c.283-.565.146-1.282-.326-1.65-.225-.175-.497-.248-.761-.205-.285.045-.539.214-.717.476-.046.068-.096.133-.146.197l-.143.23-6.836,9.803c-.993,1.415-3.266,5.605-1.91,8.018.281.501.104,1.137-.398,1.418-.161.09-.336.133-.509.133Z" fill="#231f20"/>
              <path d="M74.577,78.138c-.678,0-1.335-.227-1.889-.66-1.287-1.006-1.651-2.87-.847-4.337l.309-.502,2.965-4.389c.321-.477.969-.603,1.446-.28.477.322.602.969.28,1.446l-3.201,4.773c-.286.525-.153,1.269.331,1.647.223.174.488.248.761.206.284-.045.538-.214.715-.476.047-.069.098-.134.147-.198l.126-.207,2.794-4.24c.316-.479.961-.613,1.443-.296.48.316.613.962.297,1.443l-2.749,4.172c-.09.183-.198.32-.273.416-.562.823-1.313,1.308-2.175,1.444-.161.025-.321.038-.48.038Z" fill="#231f20"/>
              <path d="M78.373,80.354c-.677,0-1.334-.227-1.888-.659-1.288-1.008-1.651-2.873-.847-4.338l.309-.501,2.965-4.389c.321-.477.97-.603,1.446-.28.477.322.602.969.28,1.446l-3.201,4.774c-.287.524-.153,1.269.33,1.647.225.174.493.245.761.205.285-.045.539-.214.717-.476.046-.068.096-.133.146-.197l.127-.208,2.794-4.24c.316-.48.961-.613,1.443-.296.48.316.613.962.297,1.443l-2.75,4.173c-.09.181-.196.317-.271.414-.564.824-1.315,1.309-2.177,1.445-.16.025-.321.038-.48.038Z" fill="#231f20"/>
              <path d="M70.872,75.992c-.678,0-1.335-.227-1.889-.66-1.287-1.006-1.651-2.87-.847-4.337l.309-.502,1.971-2.918c.322-.477.97-.603,1.446-.28.477.322.602.969.28,1.446l-2.207,3.303c-.286.525-.153,1.269.331,1.647.223.175.488.244.76.206.284-.045.539-.214.717-.477.046-.069.097-.134.146-.198l.123-.201,1.8-2.77c.312-.483.959-.62,1.44-.306.482.313.619.959.306,1.441l-1.757,2.703c-.09.185-.198.323-.274.42-.563.823-1.315,1.309-2.177,1.444-.16.025-.32.038-.479.038Z" fill="#231f20"/>
              <path d="M83.036,83.141c-.212,0-.426-.064-.61-.199-.466-.338-.569-.989-.231-1.455l3.091-4.321c.286-.525.153-1.269-.33-1.646-.224-.175-.496-.248-.761-.206-.285.045-.539.214-.716.476-.047.069-.098.135-.148.2l-.124.203-2.197,3.358c-.313.48-.959.618-1.441.301-.481-.315-.616-.96-.301-1.442l2.152-3.291c.09-.183.198-.32.273-.417.563-.824,1.315-1.31,2.177-1.446.842-.132,1.685.088,2.368.623,1.287,1.004,1.651,2.869.847,4.336l-.309.502-2.896,3.994c-.203.281-.521.43-.844.43Z" fill="#231f20"/>
              <path d="M51.494,105.228l4.436-6.565c.321-.477.196-1.124-.28-1.446-.477-.32-1.125-.196-1.446.28l-5.224,7.731h2.514Z" fill="#231f20"/>
              <path d="M73.739,105.228h2.537l-12.971-18.669c-.328-.472-.976-.59-1.45-.261-.472.328-.589.978-.261,1.45l12.145,17.479Z" fill="#231f20"/>
              <path d="M52.157,94.802l7.044,10.426h2.514l-8.413-12.453-.528-.02c-4.5-.168-6.485-4.08-6.566-4.243l-6.763-9.923-.147-.199c-.042-.071-.084-.143-.13-.211-.385-.57-.271-1.395.25-1.802.438-.345,1.028-.267,1.349.117l2.486,3.645c.321.477.97.601,1.446.28.477-.322.602-.97.28-1.446l-2.553-3.733c-1.082-1.318-2.968-1.537-4.291-.504-1.374,1.073-1.686,3.141-.694,4.609l.052.086h0c.061.105.146.255.279.402l6.601,9.665c.337.647,2.703,4.84,7.785,5.304Z" fill="#231f20"/>
            </g>
            <path d="M14.713,172.689h0c-.252,0-.507-.063-.741-.197-.448-.255-.715-.706-.753-1.184,0,0,0-.002,0-.003h0c-.022-.289.038-.587.192-.858l32.637-57.361h0s0,0,0,0c.409-.721,1.326-.972,2.046-.562.72.41.972,1.326.562,2.045l-32.638,57.361c-.276.486-.783.759-1.305.759Z" fill="#231f20"/>
            <path d="M109.126,172.689c-.072,0-.145-.005-.216-.016-.202-.03-.396-.1-.572-.208,0,0-.002-.001-.003-.002h0c-.21-.13-.391-.314-.519-.544l-.16-.286-31.848-57.075c-.403-.723-.144-1.637.58-2.041.72-.4,1.637-.146,2.04.579l32.007,57.361c.404.724.145,1.637-.579,2.041-.23.129-.481.19-.729.19Z" fill="#231f20"/>
            <g>
              <g>
                <path d="M.277,87.797l1.92-7h1.62l1.92,7h-1.38l-1.471-5.91h.19l-1.46,5.91H.277ZM1.137,86.287l.45-1.19h2.851l.449,1.19H1.137Z" fill="#231f20"/>
                <path d="M6.229,88.172h-2.165l-.376-1.51h-1.404l-.373,1.51H-.214l2.125-7.75h2.192l2.126,7.75ZM4.65,87.422h.595l-.208-.76h-.576l.189.76ZM.77,87.422h.554l.188-.76h-.534l-.208.76ZM4.274,85.912h.07l-.18-.44.109.44ZM2.469,85.912h1.033l-.109-.44h-.814l-.109.44ZM1.68,85.912h.017l.032-.13-.049.13ZM3.979,84.722h.526l-.974-3.55h-1.048l-.974,3.55h.48l.605-2.451-.188-.759h1.148l-.188.759.61,2.451ZM2.763,84.722h.443l-.223-.893-.221.893Z" fill="#231f20"/>
              </g>
              <g>
                <path d="M9.757,87.927c-.474,0-.894-.11-1.26-.33-.367-.22-.648-.53-.845-.93-.197-.4-.295-.863-.295-1.391v-4.479h1.37v4.5c0,.28.041.521.125.725.083.204.203.358.359.465.156.107.339.16.545.16.313,0,.563-.12.75-.36s.28-.57.28-.99v-4.5h1.37v4.479c0,.527-.101.99-.3,1.391-.2.399-.482.71-.846.93s-.781.33-1.255.33Z" fill="#231f20"/>
                <path d="M9.757,88.302c-.54,0-1.028-.129-1.453-.383-.427-.256-.76-.621-.988-1.086-.221-.449-.333-.973-.333-1.556v-4.854h2.12v4.875c0,.231.032.426.097.582.056.136.129.233.224.298.235.162.595.127.788-.12.134-.171.201-.427.201-.759v-4.875h2.12v4.854c0,.582-.114,1.105-.339,1.558-.232.463-.564.828-.987,1.083-.422.255-.909.384-1.449.384ZM7.732,81.172v4.104c0,.468.086.88.256,1.225.166.337.396.59.701.773.621.373,1.515.372,2.128,0,.305-.184.535-.438.705-.777.172-.347.26-.758.26-1.223v-4.104h-.62v4.125c0,.503-.121.914-.359,1.22-.427.55-1.253.655-1.803.279-.217-.148-.384-.361-.495-.633-.101-.245-.152-.537-.152-.866v-4.125h-.62Z" fill="#231f20"/>
              </g>
              <g>
                <path d="M15.816,87.797v-5.73h-1.83v-1.27h5.04v1.27h-1.83v5.73h-1.38Z" fill="#231f20"/>
                <path d="M17.571,88.172h-2.13v-5.73h-1.83v-2.02h5.79v2.02h-1.83v5.73ZM16.191,87.422h.63v-5.73h1.83v-.52h-4.29v.52h1.83v5.73Z" fill="#231f20"/>
              </g>
            </g>
          </g>
          <g>
            <path d="M47.353,57.597h0c-.52,0-1.024-.271-1.302-.753l-.003-.006L13.41-.523c-.41-.72-.158-1.636.562-2.045.718-.41,1.636-.159,2.046.562l32.638,57.361c.41.72.158,1.636-.562,2.045-.234.133-.489.197-.741.197Z" fill="#231f20"/>
            <path d="M77.116,57.597c-.247,0-.498-.062-.729-.19-.724-.404-.982-1.317-.578-2.041L107.815-1.996c.404-.724,1.323-.98,2.04-.579.724.404.983,1.317.579,2.041l-32.007,57.361c-.273.49-.781.767-1.305.77h-.007Z" fill="#231f20"/>
          </g>
        </g>
      </g>
    </g>
  </g>
  <path d="M76.804,69.07l1.022-.879c.754-.648.839-1.785.19-2.538-.646-.753-1.782-.84-2.538-.19l-.966.831-8.441-10.228,21.17-25.492,4.899-5.9h-15.29l-1.08,1.309-17.263,20.919-17.263-20.919-1.08-1.309h-15.29l4.899,5.9,21.17,25.492-8.44,10.228-.965-.831c-.753-.648-1.891-.564-2.538.19-.648.753-.563,1.89.19,2.538l1.021.879-11.775,14.268c-.938,1.102-1.387,2.501-1.267,3.945.121,1.463.812,2.783,1.943,3.718,1.237,1.023,2.767,1.238,3.833,1.238,1.919,0,3.61-.682,4.637-1.87l.023-.027.022-.027,11.367-13.688.824.709c.34.292.757.436,1.173.436.506,0,1.01-.212,1.365-.626.648-.753.563-1.89-.19-2.538l-.872-.75,7.212-8.685,7.212,8.684-.872.75c-.754.648-.839,1.785-.19,2.538.355.414.858.626,1.365.626.415,0,.833-.143,1.173-.436l.825-.709,11.367,13.688.022.027.023.027c1.027,1.188,2.717,1.87,4.637,1.87,1.066,0,2.596-.215,3.834-1.239,1.13-.934,1.82-2.254,1.941-3.717.12-1.444-.33-2.843-1.267-3.945l-11.775-14.268ZM78.549,28.273h5.924l-20.733,24.966-2.897-3.511,17.706-21.455ZM34.86,88.015c-.356.412-1.149.624-1.913.624-.611,0-1.205-.136-1.54-.413-.781-.645-.877-1.806-.213-2.571l11.749-14.237,3.325,2.861-11.408,13.737ZM48.568,71.509l-3.333-2.868,8.052-9.757,2.883,3.471-7.602,9.154ZM32.546,28.273h5.924l33.314,40.368-3.333,2.868L32.546,28.273ZM85.611,88.225c-.335.277-.929.413-1.54.413-.764,0-1.557-.212-1.913-.624l-11.408-13.737,3.325-2.86,11.749,14.237c.664.765.567,1.926-.213,2.571Z" fill="#010101"/>
</svg>