<?xml version="1.0" encoding="UTF-8"?>
<svg id="a" data-name="Layer 1" xmlns="http://www.w3.org/2000/svg" width="117.02" height="117.02" viewBox="0 0 117.02 117.02">
  <path d="M61.625,86.632l30.218-45.118-1.437-1.799v-.194s-.154,0-.154,0l-11.764-14.731-40.062-.003-13.249,16.739,29.849,45.105.067.234.074-.021,3.139,4.743,3.315-4.949h.003s.002-.007.002-.007ZM58.328,85.086l-12.008-41.911,24.339-.03-12.33,41.94h0ZM47.015,39.574l5.858-11.186h11.413s5.842,11.157,5.842,11.157l-23.113.028ZM74.413,43.141l12.018-.015-21.415,31.974,9.397-31.959ZM85.649,39.527l-11.46.014-5.84-11.152h8.406s8.894,11.138,8.894,11.138ZM40.167,28.388h8.642s-5.861,11.191-5.861,11.191l-11.651.014,8.869-11.206ZM30.597,43.194l11.979-.015,9.154,31.949-21.133-31.934Z" fill="#010101"/>
</svg>