<?xml version="1.0" encoding="UTF-8"?>
<svg id="a" xmlns="http://www.w3.org/2000/svg" version="1.1" viewBox="0 0 117 117">
  <!-- Generator: Adobe Illustrator 29.5.0, SVG Export Plug-In . SVG Version: 2.1.0 Build 137)  -->
  <path d="M53.2,50.6c.6-.8.4-1.9-.4-2.5l-2.3-1.7c0,0,0-.1,0-.1.3-.9-.1-1.9-1.1-2.3-.6-.2-1.3,0-1.8.3l-1.7-1.2.4-.5c.6-.8.4-1.9-.4-2.5-.8-.6-1.9-.4-2.5.4l-.7.9-2-1.5c.6-1,.9-2.2.9-3.4,0-3.8-3.1-7-7-7s-3.8.9-5.1,2.2l-9-6.7h-4.5l12.1,8.9c-.3.8-.5,1.6-.5,2.5,0,3.8,3.1,7,7,7s3.1-.6,4.3-1.5l2.2,1.6-.7.9c-.6.8-.4,1.9.4,2.5.3.2.7.4,1.1.4.5,0,1.1-.2,1.4-.7l.4-.6,1.9,1.4c-1,1.3-2.6,2.6-4.9,2.7-2.3,0-6-2.3-8-3.5-.7-.4-1.3-.8-1.7-1-1.4-.7-3-.4-4.3.9-3.2,3.2-5.1,13.1-.6,21.8,2.3,4.5,1,12.9-7.1,20.8-.7.7-.7,1.8,0,2.5.4.4.8.5,1.3.5s.9-.2,1.2-.5c8-7.8,10.2-16.1,8.9-22,1.6.7,3.1,1.6,4.4,2.7,3.5,2.9,4.8,6.4,5.3,7.7,1.7,4.4,1.6,6.9,1.4,8.9,0,.5,0,1,0,1.4,0,1,.8,1.8,1.8,1.8s1.8-.8,1.8-1.8,0-.8,0-1.2c.1-2.2.3-5.3-1.7-10.4-.6-1.5-2.2-5.7-6.4-9.2-2.4-2-5.3-3.5-8.3-4.3-2.2-5.4-1.9-11.2-.5-14.5.5-1.3,1.1-1.8,1.3-2,.3.2.8.5,1.3.8,2.6,1.7,6.6,4.2,10.1,4.1,3.7-.1,6.2-2.2,7.7-4.1l2,1.5c.3.2.7.3,1.1.3.5,0,1.1-.3,1.4-.7ZM34.8,39.8c-1.9,0-3.4-1.5-3.4-3.4s1.5-3.4,3.4-3.4,3.4,1.5,3.4,3.4-1.5,3.4-3.4,3.4Z"/>
  <path d="M93.7,78c-3.8,0-7,3.1-7,7s3.1,7,7,7,7-3.1,7-7-3.1-7-7-7ZM93.7,88.3c-1.9,0-3.4-1.5-3.4-3.4s1.5-3.4,3.4-3.4,3.4,1.5,3.4,3.4-1.5,3.4-3.4,3.4Z"/>
  <path d="M87.4,63.1c1-.3,1.5-1.3,1.2-2.2-.6-2.2-1.6-4.3-2.9-6.2-2.8-4.2-6.3-6-7.6-6.7-5-2.6-7.7-2.7-10.5-2.6-.1,0-.3,0-.4,0-.5,0-1,.4-1.3.8-.3.5-.3,1-.2,1.4,0,.3.2.7.4,1,5.8,7.3,4.7,12.3,2.5,16.6-2.9.8-5.5,2.2-7.8,4.1-4.2,3.5-5.8,7.6-6.4,9.2-2.1,5.4-2,8.5-1.9,10.7,0,.3,0,.6,0,.9,0,1,.8,1.8,1.8,1.8s1.8-.8,1.8-1.8,0-.6,0-1c0-2.1-.1-4.6,1.7-9.3.5-1.3,1.9-4.8,5.3-7.7,1.1-.9,2.2-1.6,3.4-2.2-1.1,5.3,1.1,13,6.5,21.3.3.5.9.8,1.5.8s.7,0,1-.3c.8-.5,1.1-1.6.5-2.5-5.5-8.5-7.6-16.5-5.3-20.4,2.5-4.2,4.3-8.8,2.5-14.5.2.2.3.4.5.6.8,1,2.9,3.8,3.6,8,.5,3,.2,5.1,0,6.5-.2,1,.4,1.9,1.4,2.1.1,0,.3,0,.4,0,.8,0,1.6-.6,1.7-1.4.4-1.6.8-4.3.1-7.9-.9-5.1-3.4-8.3-4.3-9.5-.8-1-1.5-1.9-2.2-2.6.7.3,1.4.6,2.2,1,1.1.6,4,2.1,6.3,5.5,1.1,1.6,1.9,3.3,2.4,5.2.2.8.9,1.3,1.7,1.3s.3,0,.5,0Z"/>
</svg>