<?xml version="1.0" encoding="UTF-8"?>
<svg id="a" xmlns="http://www.w3.org/2000/svg" version="1.1" viewBox="0 0 117 117">
  <!-- Generator: Adobe Illustrator 29.5.0, SVG Export Plug-In . SVG Version: 2.1.0 Build 137)  -->
  <defs>
    <style>
      .st0 {
        fill: #010101;
      }
    </style>
  </defs>
  <path class="st0" d="M58.6,43c8.7,0,15.7,7,15.7,15.7s-7,15.7-15.7,15.7-15.7-7-15.7-15.7,7-15.7,15.7-15.7M58.6,39.4c-10.6,0-19.3,8.6-19.3,19.3s8.7,19.3,19.3,19.3,19.3-8.6,19.3-19.3-8.7-19.3-19.3-19.3h0Z"/>
  <g>
    <g>
      <path class="st0" d="M89.9,64.4c-4.8,0-9.2-2.7-9.2-5.6v-.2c0-2,2.2-4.2,5.5-5.3-1.4-.9-3.6-1.6-6.6-1.1-.2,0-.5,0-.7,0-.8-.1-1.5-.8-1.7-1.6-.2-.8,0-1.7.7-2.2,2.2-1.8,3.1-3.7,3.3-5.3-2.9,1.6-6,1.9-7.5.3h-.1c-1.4-1.5-1.4-4.7.1-7.7-1.6.3-3.5,1.3-5.3,3.6-.6.8-1.6,1.1-2.5.9-1.3-.3-2.1-1.5-1.9-2.8.3-2.3,0-4.1-.5-5.3-1,2.9-2.9,4.9-4.9,4.9h-.2c-2.7,0-5.9-4.1-5.9-9.2h3.6c0,3.2,1.7,5.3,2.3,5.6.6-.3,2.1-2.4,2.1-5.6v-3.2l2.7,1.6c.2.1,4.1,2.5,4.4,8.5,4.7-4.1,9.8-2.7,10-2.7l2.9.8-2.2,2.2c-2.2,2.2-2.5,4.9-2.3,5.6.6.2,3.2-.2,5.4-2.5l2.1-2.1.9,2.9c0,.2,1.4,4.9-1.8,9.4,6,.5,8.6,5,8.7,5.2l1.5,2.7h-3.1c-3.2,0-5.3,1.7-5.6,2.3.3.6,2.4,2.1,5.6,2.1v3.6h0ZM79,48.7h0s0,0,0,0ZM76.3,40.9h0s0,0,0,0ZM65.5,37.2s0,0,0,0c0,0,0,0,0,0ZM58.5,33.6h0Z"/>
      <path class="st0" d="M27.1,64.4v-3.6c3.2,0,5.2-1.5,5.6-2.1-.3-.6-2.4-2.3-5.6-2.3h-3.1l1.5-2.7c.1-.2,2.7-4.7,8.7-5.2-3.2-4.5-1.9-9.1-1.8-9.4l.9-2.9,2.1,2.1c2.3,2.3,4.8,2.6,5.4,2.5.2-.7,0-3.4-2.3-5.6l-2.2-2.2,2.9-.8c.2,0,5.3-1.4,10,2.7.3-6,4.2-8.4,4.4-8.5l2.7-1.6v3.2c0,3.2,1.5,5.2,2.1,5.6.6-.3,2.3-2.4,2.3-5.6h3.6c0,5.1-3.2,9.2-5.9,9.2h-.2c-2,0-3.9-2.1-4.9-4.9-.5,1.3-.8,3-.5,5.3.2,1.3-.7,2.5-1.9,2.8-.9.2-1.9-.2-2.5-.9-1.8-2.3-3.7-3.3-5.3-3.6,1.5,3,1.5,6.2.1,7.6h-.1c-1,1.2-2.8,1.4-5,.8-.9-.2-1.7-.6-2.6-1,.3,1.6,1.1,3.5,3.3,5.3.7.5,1,1.4.7,2.2-.2.8-.9,1.4-1.7,1.6-.2,0-.5,0-.7,0-3.1-.5-5.2.2-6.6,1.1,3.2,1,5.5,3.3,5.5,5.3v.2c0,2.9-4.4,5.6-9.2,5.6h0ZM38,48.7s0,0,0,0c0,0,0,0,0,0ZM40.8,41s0,0,0,0h0ZM51.5,37.2h0s0,0,0,0Z"/>
    </g>
    <g>
      <path class="st0" d="M60.5,92.4v-3.2c0-3.2-1.5-5.2-2.1-5.6-.6.3-2.3,2.4-2.3,5.6h-3.6c0-5.1,3.2-9.2,5.9-9.2h.2c2,0,3.9,2.1,4.9,4.9.5-1.3.8-3,.5-5.3-.2-1.3.7-2.5,1.9-2.8.9-.2,1.9.2,2.5.9,1.8,2.3,3.7,3.3,5.3,3.6-1.5-3-1.5-6.2-.1-7.6h.1c1.5-1.7,4.6-1.4,7.5.2-.3-1.6-1.1-3.5-3.3-5.3-.7-.5-1-1.4-.7-2.2.2-.8.9-1.4,1.7-1.6.2,0,.5,0,.7,0,3.1.5,5.2-.2,6.6-1.1-3.2-1-5.5-3.3-5.5-5.3v-.2c0-2.9,4.4-5.6,9.2-5.6v3.6c-3.2,0-5.2,1.5-5.6,2.1.3.6,2.4,2.3,5.6,2.3h3.1l-1.5,2.7c-.1.2-2.7,4.7-8.7,5.2,3.2,4.5,1.9,9.1,1.8,9.4l-.9,2.9-2.1-2.1c-2.3-2.3-4.8-2.6-5.4-2.5-.2.7,0,3.4,2.3,5.6l2.2,2.2-2.9.8c-.2,0-5.3,1.4-10-2.7-.3,6-4.2,8.4-4.4,8.5l-2.7,1.6h0ZM58.5,83.6h0ZM65.5,80h0s0,0,0,0ZM76.1,76.4h0ZM76.3,76.3h0s0,0,0,0ZM79,68.5s0,0,0,0c0,0,0,0,0,0Z"/>
      <path class="st0" d="M56.5,92.4l-2.7-1.6c-.2-.1-4.1-2.5-4.4-8.5-4.7,4.1-9.8,2.7-10,2.7l-2.9-.8,2.2-2.2c2.2-2.2,2.5-4.9,2.3-5.6-.6-.2-3.2.2-5.4,2.5l-2.1,2.1-.9-2.9c0-.2-1.4-4.9,1.8-9.4-6-.5-8.6-5-8.7-5.2l-1.5-2.7h3.1c3.2,0,5.3-1.7,5.6-2.3-.3-.6-2.4-2.1-5.6-2.1v-3.6c4.8,0,9.2,2.7,9.2,5.6v.2c0,2-2.2,4.2-5.5,5.3,1.4.9,3.6,1.6,6.6,1.1.2,0,.5,0,.7,0,.8.1,1.5.8,1.7,1.6.2.8,0,1.7-.7,2.2-2.2,1.8-3,3.7-3.3,5.3.8-.5,1.7-.8,2.6-1,2.1-.6,3.9-.3,5,.7h.1c1.4,1.5,1.4,4.7-.1,7.7,1.6-.3,3.5-1.3,5.3-3.6.6-.8,1.6-1.1,2.5-.9,1.3.3,2.1,1.5,1.9,2.8-.3,2.3,0,4.1.5,5.3,1-2.9,2.9-4.9,4.9-4.9h.2c2.7,0,5.9,4.1,5.9,9.2h-3.6c0-3.2-1.7-5.3-2.3-5.6-.6.3-2.1,2.4-2.1,5.6v3.2h0ZM51.5,80s0,0,0,0c0,0,0,0,0,0ZM40.8,76.3s0,0,0,0h0ZM38,68.5h0s0,0,0,0Z"/>
    </g>
  </g>
  <polygon class="st0" points="52.1 75.9 49.6 73.3 61.2 62.4 50.6 56 65.2 41.7 67.7 44.3 56.4 55.3 67.1 61.8 52.1 75.9"/>
</svg>