<?xml version="1.0" encoding="UTF-8"?>
<svg id="a" data-name="Layer 1" xmlns="http://www.w3.org/2000/svg" width="117.019" height="117.02" xmlns:xlink="http://www.w3.org/1999/xlink" viewBox="0 0 117.019 117.02">
  <defs>
    <clipPath id="b">
      <path d="M-236.525,51.721h8.503c.583-.083.586.39.549.978v8.088" fill="#231f20"/>
    </clipPath>
    <clipPath id="c">
      <rect x="-317.239" y="-286.049" width="508" height="450" fill="#231f20"/>
    </clipPath>
  </defs>
  <path d="M77.926,58.498l-6.684-2.254-5.772,1.418-.434-1.742c-.553-2.222-2.351-8.532-4.001-11.02l-.098-.166c-.179-.345-1.713-3.449-.401-6.193.535-1.118,1.753-2.569,4.523-3.131,4.342-.884,6.681,2.449,7.495,4.781,1.451,1.263,4.715,5.232,5.238,15.666l.133,2.641ZM71.4,52.497l2.586.873c-.936-8.453-3.91-10.558-3.942-10.581l-.651-.381-.137-.701c-.152-.571-1.005-3.265-3.481-2.769-1.053.213-1.721.6-1.986,1.148-.445.918.06,2.384.314,2.926,1.683,2.607,3.224,7.643,3.965,10.304l3.333-.819Z" fill="#010101"/>
  <path d="M64.718,47.002l-2.249-2.811c.196-.159,4.896-3.866,10.483-2.612l-.787,3.513c-3.883-.869-7.412,1.882-7.447,1.911Z" fill="#010101"/>
  <path d="M87.783,58.277c-2.815,0-5.106-2.291-5.106-5.106s2.291-5.105,5.106-5.105,5.105,2.29,5.105,5.105-2.29,5.106-5.105,5.106ZM87.783,51.665c-.831,0-1.507.676-1.507,1.506s.676,1.506,1.507,1.506,1.506-.676,1.506-1.506-.676-1.506-1.506-1.506Z" fill="#010101"/>
  <path d="M83.596,68.234c-2.494,0-4.522-2.029-4.522-4.522s2.028-4.522,4.522-4.522,4.522,2.029,4.522,4.522-2.028,4.522-4.522,4.522ZM83.596,62.789c-.509,0-.923.414-.923.923s.414.923.923.923.923-.414.923-.923-.414-.923-.923-.923Z" fill="#010101"/>
  <path d="M43.065,65.661l.383-2.89c.011-.087,1.107-8.932-2.956-13.427-1.474-1.631-1.767-3.988-.729-5.865,1.252-2.27,2.898-3.641,4.762-3.964,1.827-.319,3.716.365,5.602,2.029l.17.149.127.187c.314.461,7.675,11.409,5.438,21.674l-.427,1.96-6.068-2.03-6.3,2.178ZM49.346,59.68l3.288,1.1c.579-7.532-4.23-15.39-5.064-16.689-.694-.581-1.63-1.167-2.43-1.03-.997.173-1.822,1.426-2.226,2.157-.295.533-.194,1.221.25,1.712,3.564,3.944,4.075,9.972,4.028,13.495l2.153-.745Z" fill="#010101"/>
  <path d="M37.438,78.136c-2.494,0-4.522-2.029-4.522-4.522s2.028-4.522,4.522-4.522,4.522,2.029,4.522,4.522-2.028,4.522-4.522,4.522ZM37.438,72.69c-.509,0-.923.414-.923.923s.414.923.923.923.923-.414.923-.923-.414-.923-.923-.923Z" fill="#010101"/>
  <path d="M43.592,51.894l-2.557-2.534c.167-.169,4.199-4.132,9.467-3.917l-.152,3.597c-3.737-.146-6.728,2.824-6.758,2.854Z" fill="#010101"/>
  <g>
    <path d="M73.064,60.997l-1.776.417-1.879-.562-4.482-1.34-.148,4.675c-.155,4.62-1.637,13.902-5.198,17.42.837.776,1.799,1.505,2.908,2.154,5.463-6.019,5.889-19.46,5.889-19.46l2.798.837,2.711-.637s-.052,3.19-.859,6.67c-1.003,4.323-3.186,9.94-7.872,13.693,1.169.244,2.983.591,3.147.617.401.062.781.181,1.131.338,3.343-3.445,5.776-8.125,7.101-13.834.884-3.809.95-7.279.952-7.425l.075-4.619-4.497,1.056Z" fill="#010101"/>
    <path d="M59.013,88.053c-.119.035-.227.08-.348.113,0,0-1.216.14-2.21.14-1.255,0-2.151-.225.196-1.235-1.3-.599-2.538-1.282-3.628-2.032-1.043.86-1.656,1.989-1.384,3.596.207,1.222,1.107,3.271,4.816,3.271,1.167,0,2.477-.147,2.622-.164l.276-.032.268-.074c1.74-.479,3.368-1.161,4.889-2.017-1.6-.3-3.536-.835-5.497-1.567Z" fill="#010101"/>
  </g>
  <path d="M67.403,91.715c-.306,0-.627-.009-.966-.027-4.149-.225-14.157-3.32-17.699-8.194-4.987-6.861-5.168-13.471-5.174-13.749l-.041-2.179,6,1.036,6.319-2.222-.032,2.575c-.003.396.04,9.857,8.997,13.992.618.151,3.389.692,3.78.758,2.687.418,4.775,2.566,4.554,4.69-.134,1.274-1.076,3.319-5.738,3.319ZM47.464,71.9c.442,2.221,1.528,5.82,4.187,9.478,2.625,3.611,11.289,6.515,14.982,6.715,1.502.082,2.312-.078,2.713-.211-.256-.238-.715-.526-1.321-.621-.039-.006-4.03-.73-4.585-.981-8.235-3.729-10.434-11.034-11.019-14.881l-2.587.91-2.37-.409Z" fill="#010101"/>
  <path d="M42.447,43.803c-2.933-3.697-6.13-6.243-9.005-7.168-5.317-1.712-6.717.041-6.731.059.039-.052.054-.085.054-.085l-3.125-1.788c.254-.442,2.714-4.251,10.906-1.613,4.543,1.462,8.338,5.352,10.722,8.357l-2.82,2.237Z" fill="#010101"/>
  <path d="M62.969,38.331c-1.363-5.292-1.076-9.17.854-11.527,1.837-2.242,4.357-2.174,4.639-2.16l-.193,3.595.097-1.797-.062,1.799c-.048,0-1.033,0-1.729.888-.635.81-1.495,2.966-.119,8.304l-3.486.898Z" fill="#010101"/>
  <g>
    <path d="M-236.525,51.721h8.503c.583-.083.586.39.549.978v8.088" fill="#231f20"/>
    <g clip-path="url(#b)">
      <g>
        <rect x="-317.239" y="-286.049" width="508" height="450" fill="#231f20"/>
        <g clip-path="url(#c)">
          <g>
            <g>
              <g>
                <path d="M11.034,49.097l-4.011-1.353-3.463.851-.26-1.045c-.332-1.333-1.411-5.12-2.401-6.611l-.058-.099c-.107-.207-1.028-2.07-.241-3.716.32-.671,1.052-1.542,2.714-1.879,2.612-.523,4.009,1.47,4.498,2.869.87.757,2.828,3.14,3.143,9.399l.079,1.584ZM7.119,45.497l1.552.523c-.562-5.071-2.346-6.335-2.365-6.348l-.342-.231-.13-.413c-.087-.331-.606-1.971-2.09-1.667-.632.128-1.033.36-1.192.689-.268.551.036,1.431.188,1.755,1.01,1.564,1.934,4.585,2.379,6.182l2-.491Z" fill="#231f20"/>
                <path d="M3.109,42.2l-1.35-1.686c.118-.095,2.939-2.321,6.291-1.568l-.473,2.107c-2.321-.521-4.447,1.13-4.469,1.146Z" fill="#231f20"/>
                <path d="M16.948,48.965c-1.689,0-3.063-1.375-3.063-3.064s1.374-3.063,3.063-3.063,3.063,1.375,3.063,3.063-1.374,3.064-3.063,3.064ZM16.948,44.998c-.498,0-.903.405-.903.903s.405.904.903.904.903-.405.903-.904-.405-.903-.903-.903Z" fill="#231f20"/>
                <path d="M14.436,54.939c-1.496,0-2.713-1.217-2.713-2.714s1.217-2.714,2.713-2.714,2.714,1.217,2.714,2.714-1.218,2.714-2.714,2.714ZM14.436,51.671c-.305,0-.553.249-.553.554s.248.554.553.554.554-.249.554-.554-.248-.554-.554-.554Z" fill="#231f20"/>
                <path d="M5.305,52.579l1.679.502,1.627-.382s-.031,1.914-.516,4.002c-.831,3.579-2.994,8.649-8.618,10.197,0,0-.73.084-1.326.084-.935,0-1.543-.206,1.5-1.267,5.297-1.846,5.654-13.136,5.654-13.136M3.235,49.706l-.089,2.804c-.107,3.202-1.276,10.145-4.206,11.166-1.891.659-4.034,1.406-3.678,3.504.124.733.665,1.963,2.89,1.963.7,0,1.486-.088,1.573-.098l.165-.019.161-.044c5.106-1.405,8.71-5.593,10.149-11.791.53-2.285.57-4.368.571-4.455l.045-2.772-2.699.634-1.066.25-1.127-.337-2.689-.804h0Z" fill="#231f20"/>
                <g>
                  <path d="M-8.503,55.824l2.589.447,2.599-.914s-.084,6.624,6.102,9.424c.132.06,2.332.484,2.473.506,1.998.311,3.243,2.878-1.06,2.645-2.354-.128-7.942-1.91-9.805-4.473-2.827-3.889-2.898-7.635-2.898-7.635Z" fill="#231f20"/>
                  <path d="M4.721,69.027c-.184,0-.376-.005-.579-.016-2.49-.136-8.495-1.994-10.621-4.917-2.991-4.117-3.1-8.083-3.104-8.25l-.024-1.308,3.601.623,3.791-1.333-.02,1.545c-.002.238.024,5.914,5.398,8.396.374.091,2.064.42,2.268.454,1.612.251,2.866,1.54,2.733,2.814-.08.765-.646,1.992-3.443,1.992ZM-7.243,57.138c.266,1.333.917,3.492,2.512,5.687,1.574,2.166,6.773,3.909,8.99,4.029.904.048,1.387-.047,1.628-.126-.153-.143-.429-.316-.793-.373-.021-.003-2.412-.435-2.752-.588-4.94-2.237-6.26-6.62-6.611-8.928l-1.552.546-1.422-.246Z" fill="#231f20"/>
                </g>
              </g>
              <path d="M2.061,36.997c-.818-3.175-.646-5.501.512-6.916,1.104-1.347,2.618-1.306,2.783-1.296l-.095,2.158c-.008-.002-.613-.009-1.037.533-.381.486-.897,1.78-.071,4.983l-2.092.539Z" fill="#231f20"/>
            </g>
            <path d="M16.145,24.843h0c-.252,0-.507-.063-.741-.197-.448-.255-.715-.706-.753-1.184,0,0,0-.002,0-.003h0c-.022-.289.038-.587.192-.858l32.637-57.361h0s0,0,0,0c.409-.721,1.326-.972,2.046-.562.72.41.972,1.326.562,2.045L17.449,24.084c-.276.486-.783.759-1.305.759Z" fill="#231f20"/>
            <path d="M110.558,24.843c-.072,0-.145-.005-.216-.016-.202-.03-.396-.1-.572-.208,0,0-.002-.001-.003-.002h0c-.21-.13-.391-.314-.519-.544l-.16-.286-31.848-57.075c-.403-.723-.144-1.637.58-2.041.72-.4,1.637-.146,2.04.579l32.007,57.361c.404.724.145,1.637-.579,2.041-.23.129-.481.19-.729.19Z" fill="#231f20"/>
            <path d="M48.784,134.751h0c-.52,0-1.024-.271-1.302-.753l-.003-.006L14.842,76.631c-.41-.72-.158-1.636.562-2.045.718-.41,1.636-.159,2.046.562l32.638,57.361c.41.72.158,1.636-.562,2.045-.234.133-.489.197-.741.197Z" fill="#231f20"/>
            <path d="M78.548,134.751c-.247,0-.498-.062-.729-.19-.724-.404-.982-1.317-.578-2.041l32.007-57.361c.404-.724,1.323-.98,2.04-.579.724.404.983,1.317.579,2.041l-32.007,57.361c-.273.49-.781.767-1.305.77h-.007Z" fill="#231f20"/>
            <path d="M132.113,70.912c-.515,0-.955-.068-1.177-.261l-.238-.207-.477-1.619c-.145-.049-.303-.101-.438-.146-1.422-.466-2.081-.725-2.427-1.24-.221-.328-1.068-2.608-1.122-2.958-.081-.521-.05-1.06-.02-1.583.018-.313.036-.634.022-.89-.549-.28-2.173-1.03-2.626-1.208-.071.011-.197.045-.285.07-.386.105-.912.248-1.521.071l-.14-.052c-.299-.134-.811-.458-1.689-1.019-.24-.153-.538-.343-.835-.529.292.535.465,1.05.041,1.573-.783.961-1.94.263-2.497-.071-.066-.04-.131-.081-.192-.118-.199.123-.477.319-.663.452-.636.451-1.047.732-1.479.817-.353.069-.706-.014-1.63-.27-.217-.061-.41-.117-.513-.136l-.229-.045c-.09-.019-.246-.051-.367-.069-.087.076-.185.17-.285.263-.55.509-1.065.991-1.768.854-.429-.083-1.302-.735-1.469-1.283-.108-.362-.084-.717-.062-1.031.005-.073.013-.146.015-.214-.216-.329-.965-1.065-1.425-1.518-.706-.695-1.151-1.141-1.393-1.517l-.097-.15-.572-2.409c-.023-.589.248-1.312,1.679-1.413.045-.003.09-.005.135-.008.129-.295.359-.896.522-1.32.682-1.773.865-2.25,1.4-2.493.544-.249,2.116-.24,2.428-.188.37.062.711.245,1.042.422.075.041.174.093.268.141.08-.111.166-.234.241-.346-.079-.121-.169-.252-.231-.343-.386-.56-.866-1.257-.284-1.946.229-.275.446-.339,1.091-.532.208-.062.598-.179.815-.259.246-.357.77-1.202,1.036-1.662-.137-.132-.317-.297-.444-.414-.654-.598-.983-.898-1.088-1.341-.108-.456.067-.843.311-1.38.056-.124.139-.306.191-.44-.095-.183-.275-.47-.394-.658-.314-.501-.586-.934-.69-1.349l-.05-.195.024-.2c.082-.674.114-1.373.148-2.112.031-.673.062-1.344.131-1.992.042-.395.13-.738.423-1.131.013-.016,1.105-1.16,1.645-1.291.384-.096.717-.04.973.036.183-.353.398-.688.833-.839l.315-.059,3.089-.105c.107-.251.236-.591.325-.827.322-.853.52-1.351.821-1.665.412-.431,2.315-.945,2.545-.956l.152-.007,4.544,1.117c.396.224.652.624.996,1.241.13-.179.281-.343.485-.464.196-.116,2.387-.819,2.822-.774.586.046.947.472,1.666,1.32.198.234.498.587.601.675l.257.153.074.217c.36.671-.06,2.703-.323,3.086-.297.431-.759.538-1.253.638.091.194.188.388.266.53.036.008.076.017.117.028.304.077.683.173,1.015.391.603.394,1.215,1.232,1.862,2.119.405.555.864,1.184,1.161,1.454.068.063.266.17.409.248.214.116.456.248.671.419.582.465.947,1.201,1.3,1.914.074.151.149.303.224.445.155-.037.321-.081.447-.114.609-.16,1.002-.256,1.365-.227l.986.083.004.99c.003.759.002,4.605-.271,5.741-.005.02-.01.041-.016.063.278.206.677.474.905.627.862.579,1.123.754,1.217,1.252.105.556-.596,2.022-.894,2.271-.385.32-.917.415-1.59.535-.174.031-.43.077-.609.119l-.743,1.117c.068.247.124.498.179.745.095.429.192.873.328,1.115.289.52.873,1.168,1.438,1.794.521.578,1.061,1.176,1.455,1.764.47.563.396,1.074.25,1.402l-.095.212-2.35,2.094-.292.057c-.631.122-1.148-.269-1.86-.81-.114-.087-.275-.209-.409-.305-.108.046-.222.098-.313.138l-.187.081c-.539.225-1.069.487-1.6.748-.289.143-.577.285-.866.421-.11.265-.264.663-.395,1.015.19.089.386.228.538.454.104.153.905,2.596.337,3.345l-.215.282-.339.101c-.218.064-.453.209-.726.376-.386.237-.823.506-1.377.644-.024.006-1.765.429-3.043.429ZM129.12,66.14c.301.146.959.362,1.336.486.544.178.89.294,1.137.419l.418.21.431,1.459c.785-.094,1.959-.273,2.194-.328.228-.057.478-.21.767-.389.123-.075.252-.154.388-.231-.034-.199-.075-.412-.113-.597-.663-.202-1.039-.612-1.119-1.224-.075-.57.948-2.993,1.182-3.239l.146-.153.192-.087c.391-.177.778-.368,1.166-.559.57-.282,1.143-.562,1.725-.805l.148-.064c.639-.281.981-.421,1.32-.399.517.017.962.356,1.579.826.058.044.128.098.2.152l.711-.633c-.275-.344-.608-.712-.933-1.073-.645-.716-1.312-1.456-1.721-2.19-.289-.519-.421-1.119-.55-1.699-.077-.352-.157-.715-.258-.954l-.222-.533,1.678-2.523.201-.124c.392-.242.933-.338,1.505-.44.149-.026.345-.062.499-.095,0-.001,0-.002.002-.004-.02-.013-.04-.027-.061-.04-1.294-.87-1.823-1.248-1.928-1.878-.064-.4.041-.756.11-.992l.032-.116c.121-.504.186-2.292.205-3.901-.726.183-1.32.273-1.821-.058l-.156-.104-.112-.15c-.269-.36-.491-.809-.706-1.243-.212-.43-.504-1.018-.711-1.183-.096-.077-.227-.14-.356-.211-.267-.145-.569-.31-.831-.548-.458-.417-.94-1.078-1.45-1.777-.409-.56-1.027-1.407-1.3-1.584-.051-.026-.248-.076-.366-.106-.276-.07-.59-.15-.865-.326-.466-.299-1.598-2.418-1.364-3.215.25-.865,1.159-1.067,1.845-1.205.036-.208.07-.446.09-.637-.155-.167-.334-.375-.558-.64-.111-.13-.263-.31-.396-.46-.398.11-.947.271-1.258.368-.021.035-.042.071-.064.108-.273.456-.688,1.144-1.476,1.239-.26.032-.768.013-1.242-.464h0c-.227-.228-.403-.541-.673-1.032-.09-.163-.223-.405-.324-.566l-3.533-.833c-.284.083-.787.253-1.08.364-.072.185-.215.562-.317.832-.435,1.15-.696,1.845-1.328,2.117l-.187.08-3.275.112c-.181.357-.385.709-.782.899-.588.283-1.122.117-1.422.005-.17.145-.368.32-.479.422-.065.662-.094,1.285-.123,1.909-.03.655-.062,1.33-.13,1.995.09.167.259.436.37.613.463.738.747,1.216.761,1.739.009.414-.159.82-.418,1.392.09.084.185.17.264.242.526.481.832.767,1.006,1.057.305.508.342.942.129,1.498-.064.169-1.387,2.503-1.842,2.843-.184.137-.426.244-.799.37.226.377.376.739.347,1.131-.049.673-1.209,2.029-1.317,2.119-.866.715-1.884.168-2.493-.159-.149-.08-.288-.165-.407-.202-.112-.007-.568.006-.91.032-.151.354-.361.899-.515,1.3-.407,1.06-.612,1.572-.798,1.869-.275.506-.758.697-1.185.777l.205.828c.206.246.657.689,1.002,1.028,1.347,1.326,1.947,1.979,2.046,2.667.008.058.014.116.017.173.287-.249.555-.434.876-.505.447-.099.944.002,1.343.085l.178.035c.136.024.406.097.707.181.188.052.496.138.697.185.126-.089.393-.278.582-.413.763-.542,1.264-.874,1.792-.921.056-.005.108-.007.163-.005.048-.436.225-1.126.638-1.556.269-.279.617-.434.981-.436h.011c.472,0,.872.21,2.975,1.552.447.286,1.037.662,1.308.814.071-.012.211-.05.31-.077.329-.089.776-.214,1.286-.111.446.089,3.32,1.442,3.621,1.669.278.209.58.502.68,1.077.091.518.06,1.069.028,1.603-.023.409-.048.832-.002,1.127.056.2.538,1.485.751,1.991ZM129.008,66.078h0ZM142.643,61.913h0ZM116.684,60.622h0ZM109.412,60.541h0ZM115.271,42.682h0ZM133.399,31.784h0Z" fill="#231f20"/>
            <g>
              <g>
                <path d="M51.379,56.374v-.34l2.761-2.8c.326-.333.586-.655.779-.965s.29-.651.29-1.025c0-.3-.071-.568-.215-.805-.144-.236-.349-.423-.615-.56-.267-.136-.569-.205-.91-.205-.486,0-.893.145-1.22.435-.326.29-.514.668-.56,1.135h-.36c.033-.374.146-.705.335-.995.19-.29.44-.518.75-.685.311-.167.662-.25,1.055-.25.414,0,.78.085,1.101.255.32.17.566.4.74.69.173.29.26.615.26.975,0,.3-.057.585-.17.855s-.255.512-.425.725-.372.437-.605.67l-2.67,2.72-.09-.18h3.96v.35h-4.19Z" fill="#231f20"/>
                <path d="M51.599,56.842l-.047-.093h-.548v-.869l.076-.077-.077-.154h.229l2.641-2.678c.304-.311.55-.614.728-.9.157-.252.233-.522.233-.827,0-.233-.053-.433-.16-.611-.108-.178-.261-.315-.466-.421-.519-.265-1.268-.216-1.71.177-.257.228-.398.519-.436.891l-.033.338h-1.11l.037-.408c.038-.433.171-.825.395-1.167.224-.341.521-.614.886-.81.747-.401,1.776-.384,2.509.004.379.202.677.48.886.828.208.349.313.742.313,1.168,0,.349-.067.685-.199,1-.126.301-.286.574-.478.813-.178.224-.389.458-.634.702l-1.864,1.899h3.175v1.1h-4.255l-.091.093Z" fill="#231f20"/>
              </g>
              <g>
                <path d="M60.199,56.434c-.427,0-.82-.133-1.18-.4-.36-.267-.647-.668-.86-1.205-.214-.537-.32-1.188-.32-1.955s.106-1.418.32-1.955c.213-.537.5-.938.86-1.205.359-.267.753-.4,1.18-.4s.82.133,1.18.4c.36.267.646.668.86,1.205.213.537.32,1.188.32,1.955s-.107,1.418-.32,1.955c-.214.537-.5.938-.86,1.205-.359.267-.753.4-1.18.4ZM60.199,56.074c.354,0,.682-.119.985-.355.303-.237.548-.595.734-1.075s.28-1.07.28-1.77-.094-1.29-.28-1.77-.432-.838-.734-1.075c-.304-.236-.632-.355-.985-.355s-.682.119-.985.355c-.303.237-.548.595-.734,1.075s-.28,1.07-.28,1.77.094,1.29.28,1.77.432.838.734,1.075c.304.236.632.355.985.355ZM58.699,55.454l-.19-.32,3.19-4.84.19.32-3.19,4.84Z" fill="#231f20"/>
                <path d="M60.199,56.809c-.507,0-.979-.159-1.403-.474-.416-.308-.747-.768-.985-1.368-.229-.577-.347-1.282-.347-2.093s.117-1.516.347-2.094c.237-.599.569-1.059.985-1.368.848-.629,1.959-.629,2.807,0,.414.308.746.768.985,1.368.23.581.347,1.285.347,2.094s-.116,1.513-.347,2.093c-.239.602-.571,1.062-.986,1.368-.423.314-.896.474-1.402.474ZM59.273,55.265c.055.06.112.113.172.159.475.37,1.032.371,1.509,0,.247-.193.454-.501.615-.915.169-.435.255-.985.255-1.634,0-.479-.047-.904-.139-1.269l-2.412,3.659ZM60.199,50.049c-.27,0-.517.09-.755.276-.247.193-.454.501-.615.915-.169.435-.255.985-.255,1.634,0,.479.047.904.139,1.269l2.412-3.659c-.055-.06-.112-.113-.172-.159-.237-.185-.484-.275-.754-.275Z" fill="#231f20"/>
              </g>
              <g>
                <path d="M64.879,56.374v-.34l2.761-2.8c.326-.333.586-.655.779-.965s.29-.651.29-1.025c0-.3-.071-.568-.215-.805-.144-.236-.349-.423-.615-.56-.267-.136-.569-.205-.91-.205-.486,0-.893.145-1.22.435-.326.29-.514.668-.56,1.135h-.36c.033-.374.146-.705.335-.995.19-.29.44-.518.75-.685.311-.167.662-.25,1.055-.25.414,0,.78.085,1.101.255.32.17.566.4.74.69.173.29.26.615.26.975,0,.3-.057.585-.17.855s-.255.512-.425.725-.372.437-.605.67l-2.67,2.72-.09-.18h3.96v.35h-4.19Z" fill="#231f20"/>
                <path d="M65.099,56.842l-.047-.093h-.548v-.869l.076-.077-.077-.154h.229l2.641-2.678c.304-.311.55-.614.728-.9.157-.252.233-.522.233-.827,0-.233-.053-.433-.16-.611-.108-.178-.261-.315-.466-.421-.52-.265-1.267-.216-1.71.177-.257.228-.398.519-.436.891l-.033.338h-1.11l.037-.408c.038-.433.171-.825.395-1.167.224-.341.521-.614.886-.81.747-.401,1.777-.384,2.509.004.379.202.677.48.886.828.208.349.313.742.313,1.168,0,.349-.067.685-.199,1-.126.301-.286.574-.478.813-.178.224-.389.458-.634.702l-1.864,1.899h3.175v1.1h-4.255l-.091.093Z" fill="#231f20"/>
              </g>
              <g>
                <path d="M73.64,56.434c-.394,0-.745-.08-1.056-.24-.31-.16-.559-.373-.745-.64s-.307-.557-.359-.87h.35c.054.253.16.485.32.695s.366.378.62.505c.253.127.543.19.87.19.359,0,.685-.085.975-.255.29-.17.52-.403.69-.7.17-.297.255-.622.255-.975,0-.36-.084-.69-.25-.99-.167-.3-.397-.535-.69-.705-.293-.17-.616-.255-.97-.255-.454,0-.812.114-1.075.34s-.458.477-.585.75h-.35l.43-3.91h3.35v.35h-3.18l.16-.19-.391,3.45-.09-.1c.04-.113.137-.251.29-.415.153-.164.356-.309.61-.435.253-.127.536-.19.85-.19.413,0,.792.102,1.136.305.343.204.614.48.814.83s.3.738.3,1.165c0,.42-.1.805-.3,1.155-.2.35-.475.627-.825.83-.35.204-.734.305-1.154.305Z" fill="#231f20"/>
                <path d="M73.64,56.809c-.452,0-.865-.095-1.228-.282-.363-.188-.66-.443-.881-.758-.218-.312-.359-.656-.422-1.023l-.073-.437h1.097l.063.297c.042.201.124.379.251.545s.287.296.489.397c.421.21,1.044.208,1.487-.053.234-.137.416-.322.556-.564.138-.24.205-.498.205-.788,0-.297-.066-.562-.203-.809-.134-.241-.314-.425-.551-.562-.533-.312-1.26-.257-1.612.045-.216.186-.378.391-.482.61l-.049.428-.176-.197h-.891l.392-3.56h-.18l.207-.245.094-.855h.627l.551-.654-.073.654h2.956v1.1h-3.081l-.188,1.667c.041-.023.084-.045.128-.067.693-.348,1.632-.293,2.343.127.398.237.718.562.949.967.232.405.35.86.35,1.351,0,.485-.117.936-.35,1.341-.232.407-.557.733-.962.968-.405.236-.857.355-1.343.355Z" fill="#231f20"/>
              </g>
            </g>
          </g>
        </g>
      </g>
    </g>
  </g>
</svg>