<?xml version="1.0" encoding="UTF-8"?>
<svg id="a" data-name="Layer 1" xmlns="http://www.w3.org/2000/svg" width="117.019" height="117.02" xmlns:xlink="http://www.w3.org/1999/xlink" viewBox="0 0 117.019 117.02">
  <defs>
    <clipPath id="b">
      <path d="M-368.979,51.627h8.503c.583-.083.586.39.549.978v8.088" fill="#231f20"/>
    </clipPath>
    <clipPath id="c">
      <rect x="-449.693" y="-286.143" width="508" height="450" fill="#231f20"/>
    </clipPath>
  </defs>
  <path d="M86.088,72.464c-.871-.966-1.771-1.966-2.214-2.761-.199-.359-.356-1.067-.494-1.692-.081-.365-.163-.736-.263-1.102l1.092-1.641c.269-.062.634-.126.886-.171,1.062-.189,1.899-.338,2.521-.855.489-.409,1.602-2.723,1.431-3.633-.154-.828-.604-1.131-1.943-2.031-.334-.224-.904-.607-1.325-.915,0-.005.003-.011.004-.016.427-1.772.427-7.742.423-8.921l-.006-1.649-1.644-.138c-.581-.044-1.202.104-2.159.356-.168.044-.384.101-.592.152-.1-.192-.2-.396-.3-.598-.552-1.115-1.123-2.269-2.047-3.006-.342-.272-.723-.48-1.06-.664-.204-.111-.513-.279-.607-.365-.45-.411-1.157-1.379-1.781-2.234-1.054-1.444-1.964-2.691-2.917-3.313-.533-.348-1.129-.5-1.608-.622-.044-.011-.088-.022-.131-.032-.094-.173-.203-.391-.312-.616.73-.153,1.405-.347,1.859-1.005.432-.624,1.103-3.812.513-4.913l-.235-.439-.344-.205c-.183-.174-.6-.666-.882-.999-1.136-1.339-1.705-2.012-2.673-2.089-.713-.063-4.138,1.037-4.438,1.217-.273.163-.487.37-.671.598-.497-.881-.894-1.461-1.494-1.802l-.225-.127-6.867-1.62-.253.012c-.37.018-3.348.813-4.027,1.52-.484.504-.793,1.285-1.298,2.621-.129.342-.312.826-.471,1.202l-4.974.17-.256.088c-.674.233-1.034.748-1.312,1.27-.398-.105-.907-.169-1.479-.029-.891.22-2.595,2.025-2.609,2.044-.474.634-.614,1.186-.68,1.816-.108,1.026-.157,2.079-.204,3.097-.053,1.141-.104,2.219-.229,3.257l-.04.333.082.326c.168.662.593,1.339,1.085,2.123.171.272.428.683.577.961-.08.196-.193.447-.272.621-.387.854-.667,1.472-.488,2.221.172.724.69,1.197,1.723,2.14.176.161.417.381.614.567-.415.708-1.157,1.905-1.527,2.447-.338.122-.908.292-1.217.384-.997.297-1.37.409-1.756.869-.954,1.141-.149,2.31.438,3.163.085.122.202.293.312.459-.083.122-.173.25-.26.373-.113-.058-.226-.119-.315-.167-.521-.28-1.06-.569-1.654-.667-.486-.082-2.97-.093-3.836.302-.873.398-1.16,1.145-2.229,3.924-.241.627-.578,1.503-.777,1.971-.047.003-.092.007-.133.01-2.438.172-2.749,1.525-2.719,2.316l.896,3.779.159.25c.381.596,1.076,1.291,2.178,2.375.691.68,1.81,1.781,2.164,2.294-.004.092-.014.188-.021.286-.033.497-.072,1.059.102,1.641.269.884,1.677,1.94,2.374,2.076,1.154.221,1.972-.544,2.847-1.354.117-.109.271-.251.4-.366.168.028.366.068.497.095l.357.071c.157.03.452.116.781.207,1.451.403,2.01.535,2.586.421.693-.137,1.34-.578,2.337-1.286.268-.189.656-.465.953-.653.082.048.164.098.234.14.824.494,2.752,1.651,4.028.085.593-.727.483-1.454.159-2.169.325.205.637.405.903.574,1.367.873,2.164,1.377,2.636,1.589l.233.086c.979.284,1.848.047,2.425-.11.128-.035.312-.085.374-.107.704.278,3.104,1.385,3.977,1.824.015.376-.013.841-.039,1.294-.047.816-.096,1.659.031,2.48.088.565,1.395,4.088,1.759,4.632.587.875,1.774,1.297,3.822,1.97.191.062.411.135.617.205l.731,2.479.395.344c.37.323,1.093.437,1.931.437,2.01,0,4.682-.657,4.721-.667.875-.219,1.562-.641,2.167-1.012.414-.255.772-.475,1.094-.57l.568-.168.357-.473c.931-1.232-.35-5.073-.521-5.326-.225-.332-.502-.548-.779-.694.185-.496.394-1.034.55-1.414.433-.205.863-.417,1.295-.63.853-.42,1.657-.817,2.474-1.157l.29-.125c.093-.041.258-.113.424-.183.191.139.409.304.567.425,1.13.859,1.947,1.482,2.986,1.278l.484-.094,3.688-3.285.157-.356c.196-.442.402-1.331-.399-2.291-.616-.916-1.452-1.844-2.261-2.741ZM83.841,77.262c-.082-.062-.16-.122-.228-.173-.973-.741-1.676-1.276-2.518-1.304-.546-.013-1.092.188-2.1.629l-.228.099c-.923.384-1.817.825-2.683,1.251-.599.295-1.195.59-1.798.862l-.324.147-.244.259c-.404.429-1.977,4.203-1.857,5.114.091.695.478,1.56,1.749,1.977.048.24.099.506.145.761-.185.106-.359.213-.527.316-.438.27-.818.503-1.147.585-.38.088-2.083.348-3.279.494l-.652-2.21-.695-.351c-.393-.198-.932-.378-1.779-.656-.562-.185-1.535-.504-2.01-.725-.323-.779-1.008-2.604-1.146-3.073-.057-.441-.021-1.058.014-1.655.049-.833.099-1.693-.046-2.517-.164-.925-.646-1.399-1.101-1.743-.506-.38-4.945-2.465-5.66-2.607-.82-.164-1.529.032-2.049.175-.136.037-.326.089-.418.113-.427-.244-1.313-.81-1.989-1.241-3.278-2.093-3.908-2.421-4.672-2.421h-.018c-.599.003-1.17.256-1.608.712-.635.658-.92,1.67-1.012,2.372-.049,0-.099.004-.148.008-.852.076-1.641.599-2.841,1.451-.262.186-.62.44-.873.6-.307-.075-.734-.193-1.002-.268-.47-.13-.892-.243-1.104-.281l-.273-.054c-.628-.129-1.41-.291-2.129-.132-.455.1-.837.334-1.228.652,0-.01-.003-.021-.004-.031-.157-1.105-1.097-2.129-3.203-4.202-.495-.487-1.2-1.181-1.526-1.563l-.277-1.124c.653-.143,1.365-.461,1.788-1.238.293-.472.613-1.272,1.245-2.917.228-.591.534-1.388.764-1.932.471-.032,1.058-.046,1.33-.034.131.054.388.192.563.286.907.487,2.596,1.392,4,.233.179-.148,2.009-2.269,2.089-3.375.043-.592-.159-1.134-.476-1.688.508-.178.853-.338,1.124-.541.747-.558,2.796-4.195,2.896-4.462.344-.902.283-1.605-.21-2.429-.278-.464-.758-.912-1.582-1.665-.102-.093-.222-.203-.34-.312.387-.858.636-1.481.62-2.128-.023-.885-.567-1.753-1.197-2.758-.164-.262-.412-.656-.55-.905.104-1.02.152-2.051.198-3.054.047-1.011.091-1.965.188-2.889,0-.008.002-.016.003-.024.161-.146.412-.367.641-.563.491.177,1.317.4,2.233-.039.625-.3.951-.833,1.232-1.383l5.021-.171.311-.134c1.029-.442,1.443-1.537,2.128-3.352.144-.38.341-.902.488-1.239.445-.167,1.14-.401,1.559-.525l5.389,1.271c.15.245.34.59.47.826.423.771.7,1.262,1.063,1.627h0c.775.78,1.604.808,2.03.755,1.282-.156,1.942-1.254,2.379-1.98.025-.042.051-.085.074-.125.465-.145,1.233-.37,1.821-.533.191.218.401.466.558.65.328.387.595.699.829.953-.028.255-.071.56-.118.836-1.033.211-2.47.565-2.868,1.938-.377,1.291,1.383,4.62,2.168,5.122.444.284.94.41,1.378.521.186.047.465.119.528.147.401.263,1.389,1.614,1.979,2.422.794,1.089,1.545,2.117,2.266,2.773.416.378.891.637,1.309.865.196.107.44.24.536.316.298.238.76,1.171,1.064,1.788.336.678.683,1.379,1.105,1.946l.188.251.261.173c.784.517,1.68.408,2.762.146-.033,2.439-.131,5.094-.312,5.846l-.049.172c-.111.377-.28.948-.176,1.593.165,1.004.961,1.596,2.888,2.893-.166.032-.338.062-.48.087-.898.16-1.748.311-2.375.699l-.335.207-2.652,3.986.371.889c.149.359.272.916.392,1.455.201.908.409,1.848.864,2.666.641,1.151,1.68,2.304,2.685,3.42.471.522.951,1.055,1.36,1.558l-.933.83Z" fill="#010101"/>
  <g>
    <path d="M-368.979,51.627h8.503c.583-.083.586.39.549.978v8.088" fill="#231f20"/>
    <g clip-path="url(#b)">
      <g>
        <rect x="-449.693" y="-286.143" width="508" height="450" fill="#231f20"/>
        <g clip-path="url(#c)">
          <g>
            <path d="M10.646,24.75c-.252,0-.507-.063-.741-.197-.485-.276-.758-.783-.758-1.305,0-.251.063-.506.196-.74l32.637-57.361c.409-.721,1.326-.972,2.046-.562.485.276.758.783.758,1.305,0,.251-.063.506-.196.74L11.95,23.991c-.276.486-.783.759-1.305.759Z" fill="#231f20"/>
            <path d="M43.284,134.658c-.521,0-1.028-.273-1.305-.759L9.343,76.538c-.133-.234-.196-.489-.196-.74,0-.522.272-1.029.758-1.305.72-.41,1.636-.159,2.046.562l32.637,57.361c.133.234.196.489.196.74,0,.522-.272,1.029-.758,1.305-.234.133-.489.197-.741.197Z" fill="#231f20"/>
            <path d="M-.341,70.818c-.515,0-.955-.068-1.177-.261l-.238-.207-.477-1.619c-.145-.049-.303-.101-.438-.146-1.422-.466-2.081-.725-2.427-1.24-.221-.328-1.068-2.608-1.122-2.958-.081-.521-.05-1.06-.02-1.583.018-.313.036-.634.022-.89-.549-.28-2.173-1.03-2.626-1.208-.071.011-.197.045-.285.07-.386.105-.912.248-1.521.071l-.14-.052c-.299-.134-.811-.458-1.689-1.019-.24-.153-.538-.343-.835-.529.292.535.465,1.05.041,1.573-.783.961-1.94.263-2.497-.071-.066-.04-.131-.081-.192-.118-.199.123-.477.319-.663.452-.636.451-1.047.732-1.479.817-.353.069-.706-.014-1.63-.27-.217-.061-.41-.117-.513-.136l-.229-.045c-.09-.019-.246-.051-.367-.069-.087.076-.185.17-.285.263-.55.509-1.065.991-1.768.854-.429-.083-1.302-.735-1.469-1.283-.108-.362-.084-.717-.062-1.031.005-.073.013-.146.015-.214-.216-.329-.965-1.065-1.425-1.518-.706-.695-1.151-1.141-1.393-1.517l-.097-.15-.572-2.409c-.023-.589.248-1.312,1.679-1.413.045-.003.09-.005.135-.008.129-.295.359-.896.522-1.32.682-1.773.865-2.25,1.4-2.493.544-.249,2.116-.24,2.428-.188.37.062.711.245,1.042.422.075.041.174.093.268.141.08-.111.166-.234.241-.346-.079-.121-.169-.252-.231-.343-.386-.56-.866-1.257-.284-1.946.229-.275.446-.339,1.091-.532.208-.062.598-.179.815-.259.246-.357.77-1.202,1.036-1.662-.137-.132-.317-.297-.444-.414-.654-.598-.983-.898-1.088-1.341-.108-.456.067-.843.311-1.38.056-.124.139-.306.191-.44-.095-.183-.275-.47-.394-.658-.314-.501-.586-.934-.69-1.349l-.05-.195.024-.2c.082-.674.114-1.373.148-2.112.031-.673.062-1.344.131-1.992.042-.395.13-.738.423-1.131.013-.016,1.105-1.16,1.645-1.291.384-.096.717-.04.973.036.183-.353.398-.688.833-.839l.315-.059,3.089-.105c.107-.251.236-.591.325-.827.322-.853.52-1.351.821-1.665.412-.431,2.315-.945,2.545-.956l.152-.007,4.544,1.117c.396.224.652.624.996,1.241.13-.179.281-.343.485-.464.196-.116,2.387-.819,2.822-.774.586.046.947.472,1.666,1.32.198.234.498.587.601.675l.257.153.074.217c.36.671-.06,2.703-.323,3.086-.297.431-.759.538-1.253.638.091.194.188.388.266.53.036.008.076.017.117.028.304.077.683.173,1.015.391.603.394,1.215,1.232,1.862,2.119.405.555.864,1.184,1.161,1.454.068.063.266.17.409.248.214.116.456.248.671.419.582.465.947,1.201,1.3,1.914.074.151.149.303.224.445.155-.037.321-.081.447-.114.609-.16,1.002-.256,1.365-.227l.986.083.004.99c.003.759.002,4.605-.271,5.741-.005.02-.01.041-.016.063.278.206.677.474.905.627.862.579,1.123.754,1.217,1.252.105.556-.596,2.022-.894,2.271-.385.32-.917.415-1.59.535-.174.031-.43.077-.609.119l-.743,1.117c.068.247.124.498.179.745.095.429.192.873.328,1.115.289.52.873,1.168,1.438,1.794.521.578,1.061,1.176,1.455,1.764.47.563.396,1.074.25,1.402l-.095.212-2.35,2.094-.292.057c-.631.122-1.148-.269-1.86-.81-.114-.087-.275-.209-.409-.305-.108.046-.222.098-.313.138l-.187.081c-.539.225-1.069.487-1.6.748-.289.143-.577.285-.866.421-.11.265-.264.663-.395,1.015.19.089.386.228.538.454.104.153.905,2.596.337,3.345l-.215.282-.339.101c-.218.064-.453.209-.726.376-.386.237-.823.506-1.377.644-.024.006-1.765.429-3.043.429ZM-3.334,66.047c.301.146.959.362,1.336.486.544.178.89.294,1.137.419l.418.21.431,1.459c.785-.094,1.959-.273,2.194-.328.228-.057.478-.21.767-.389.123-.075.252-.154.388-.231-.034-.199-.075-.412-.113-.597-.663-.202-1.039-.612-1.119-1.224-.075-.57.948-2.993,1.182-3.239l.146-.153.192-.087c.391-.177.778-.368,1.166-.559.57-.282,1.143-.562,1.725-.805l.148-.064c.639-.281.981-.421,1.32-.399.517.017.962.356,1.579.826.058.044.128.098.2.152l.711-.633c-.275-.344-.608-.712-.933-1.073-.645-.716-1.312-1.456-1.721-2.19-.289-.519-.421-1.119-.55-1.699-.077-.352-.157-.715-.258-.954l-.222-.533,1.678-2.523.201-.124c.392-.242.933-.338,1.505-.44.149-.026.345-.062.499-.095,0-.001,0-.002.002-.004-.02-.013-.04-.027-.061-.04-1.294-.87-1.823-1.248-1.928-1.878-.064-.4.041-.756.11-.992l.032-.116c.121-.504.186-2.292.205-3.901-.726.183-1.32.273-1.821-.058l-.156-.104-.112-.15c-.269-.36-.491-.809-.706-1.243-.212-.43-.504-1.018-.711-1.183-.096-.077-.227-.14-.356-.211-.267-.145-.569-.31-.831-.548-.458-.417-.94-1.078-1.45-1.777-.409-.56-1.027-1.407-1.3-1.584-.051-.026-.248-.076-.366-.106-.276-.07-.59-.15-.865-.326-.466-.299-1.598-2.418-1.364-3.215.25-.865,1.159-1.067,1.845-1.205.036-.208.07-.446.09-.637-.155-.167-.334-.375-.558-.64-.111-.13-.263-.31-.396-.46-.398.11-.947.271-1.258.368-.021.035-.042.071-.064.108-.273.456-.688,1.144-1.476,1.239-.26.032-.768.013-1.242-.464h0c-.227-.228-.403-.541-.673-1.032-.09-.163-.223-.405-.324-.566l-3.533-.833c-.284.083-.787.253-1.08.364-.072.185-.215.562-.317.832-.435,1.15-.696,1.845-1.328,2.117l-.187.08-3.275.112c-.181.357-.385.709-.782.899-.588.283-1.122.117-1.422.005-.17.145-.368.32-.479.422-.065.662-.094,1.285-.123,1.909-.03.655-.062,1.33-.13,1.995.09.167.259.436.37.613.463.738.747,1.216.761,1.739.009.414-.159.82-.418,1.392.09.084.185.17.264.242.526.481.832.767,1.006,1.057.305.508.342.942.129,1.498-.064.169-1.387,2.503-1.842,2.843-.184.137-.426.244-.799.37.226.377.376.739.347,1.131-.049.673-1.209,2.029-1.317,2.119-.866.715-1.884.168-2.493-.159-.149-.08-.288-.165-.407-.202-.112-.007-.568.006-.91.032-.151.354-.361.899-.515,1.3-.407,1.06-.612,1.572-.798,1.869-.275.506-.758.697-1.185.777l.205.828c.206.246.657.689,1.002,1.028,1.347,1.326,1.947,1.979,2.046,2.667.008.058.014.116.017.173.287-.249.555-.434.876-.505.447-.099.944.002,1.343.085l.178.035c.136.024.406.097.707.181.188.052.496.138.697.185.126-.089.393-.278.582-.413.763-.542,1.264-.874,1.792-.921.056-.005.108-.007.163-.005.048-.436.225-1.126.638-1.556.269-.279.617-.434.981-.436h.011c.472,0,.872.21,2.975,1.552.447.286,1.037.662,1.308.814.071-.012.211-.05.31-.077.329-.089.776-.214,1.286-.111.446.089,3.32,1.442,3.621,1.669.278.209.58.502.68,1.077.091.518.06,1.069.028,1.603-.023.409-.048.832-.002,1.127.056.2.538,1.485.751,1.991ZM-3.446,65.985h0ZM10.188,61.819h0ZM-15.771,60.528h0ZM-23.042,60.447h0ZM-17.183,42.588h0ZM.945,31.69h0Z" fill="#231f20"/>
            <g>
              <g>
                <path d="M51.84,56.341c-.407,0-.769-.082-1.085-.245-.316-.163-.565-.385-.745-.665-.18-.28-.29-.597-.33-.95h.36c.06.44.246.802.56,1.085s.727.425,1.24.425c.347,0,.642-.057.885-.17s.43-.271.561-.475c.13-.203.194-.438.194-.705,0-.327-.08-.6-.239-.82-.16-.22-.359-.398-.596-.535-.236-.136-.548-.288-.935-.455-.414-.18-.74-.341-.98-.485-.239-.143-.443-.333-.609-.57-.167-.237-.25-.532-.25-.885,0-.32.076-.606.229-.86s.372-.452.655-.595c.283-.143.615-.215.995-.215.393,0,.733.082,1.02.245.287.164.51.383.67.66.16.276.25.582.271.915h-.36c-.02-.266-.095-.511-.225-.735-.13-.223-.312-.401-.545-.535s-.511-.2-.83-.2c-.313,0-.584.057-.811.17s-.401.27-.524.47c-.124.2-.186.427-.186.68,0,.28.073.519.221.715.146.196.329.356.55.48.22.123.513.262.88.415.427.187.77.358,1.03.515.26.157.479.365.659.625.181.26.271.594.271,1,0,.327-.08.62-.24.88-.16.26-.392.461-.695.605-.303.143-.658.215-1.064.215Z" fill="#231f20"/>
                <path d="M51.84,56.716c-.466,0-.889-.097-1.257-.287-.375-.193-.675-.461-.889-.795-.211-.328-.341-.701-.388-1.11l-.047-.417h1.108l.044.325c.047.353.191.633.438.857.245.221.568.328.989.328.29,0,.534-.045.727-.135.179-.083.311-.194.403-.338.091-.142.135-.306.135-.502,0-.248-.055-.444-.168-.6-.127-.175-.289-.32-.479-.431-.227-.13-.525-.275-.896-.436-.426-.185-.77-.355-1.024-.507-.285-.17-.529-.398-.724-.676-.211-.299-.318-.669-.318-1.101,0-.388.096-.743.283-1.054.189-.312.461-.56.807-.735.688-.346,1.701-.342,2.371.039.343.196.615.464.808.798.188.325.297.688.32,1.08l.024.398h-1.107l-.025-.348c-.016-.21-.072-.398-.175-.574-.097-.167-.229-.296-.406-.397-.354-.201-.942-.193-1.287-.021-.164.082-.286.19-.373.331-.088.142-.13.299-.13.483,0,.199.048.359.146.49.117.157.259.28.434.378.21.118.49.25.841.396.44.193.802.373,1.078.539.306.184.565.431.775.733.224.322.337.73.337,1.213,0,.396-.1.758-.296,1.077-.198.322-.485.573-.854.747-.353.167-.764.251-1.225.251Z" fill="#231f20"/>
              </g>
              <g>
                <path d="M56.37,56.281v-7h.38l1.84,4.76h-.15l1.83-4.76h.38v7h-.35v-6.53h.12l-1.76,4.58h-.29l-1.771-4.58h.12v6.53h-.35Z" fill="#231f20"/>
                <polygon points="61.024 56.656 59.925 56.656 59.925 52.085 59.083 54.276 59.137 54.416 59.029 54.416 58.918 54.706 58.113 54.706 58.001 54.416 57.894 54.416 57.947 54.276 57.095 52.072 57.095 56.656 55.995 56.656 55.995 48.906 57.007 48.906 58.514 52.803 60.012 48.906 61.024 48.906 61.024 56.656" fill="#231f20"/>
              </g>
              <g>
                <path d="M62.75,56.281l2.3-3.55-2.19-3.45h.41l2.08,3.31h-.16l2.061-3.31h.41l-2.181,3.45,2.29,3.55h-.42l-2.18-3.43h.2l-2.2,3.43h-.42Z" fill="#231f20"/>
                <polygon points="68.458 56.656 67.144 56.656 65.269 53.704 63.375 56.656 62.061 56.656 64.604 52.729 62.177 48.906 63.477 48.906 65.268 51.755 67.042 48.906 68.341 48.906 65.925 52.729 68.458 56.656" fill="#231f20"/>
              </g>
            </g>
          </g>
        </g>
      </g>
    </g>
  </g>
</svg>