<?xml version="1.0" encoding="UTF-8"?>
<svg id="a" data-name="Layer 1" xmlns="http://www.w3.org/2000/svg" width="117.019" height="117.02" viewBox="0 0 117.019 117.02">
  <path d="M85.287,53.931c-1.369-1.502-3.094-2.507-5.138-3.026-.076-.206-.188-.402-.342-.576-.092-.103-9.261-10.42-13.516-19.894-.188-.546-1.027-2.838-2.318-4.194-1.054-1.108-3.046-1.992-4.928-1.318-.514.184-1.214.569-1.809,1.341-.595-.772-1.294-1.156-1.809-1.341-1.882-.674-3.874.21-4.927,1.318-1.292,1.356-2.131,3.648-2.318,4.195-4.255,9.475-13.424,19.791-13.516,19.894-.155.173-.266.37-.342.575-2.045.519-3.77,1.523-5.139,3.026-3.931,4.315-3.352,11.057-3.327,11.317l2.017,25.426c.074.943.862,1.658,1.792,1.658.048,0,.096-.002.145-.006.991-.079,1.73-.946,1.651-1.937l-2.018-25.447c-.005-.054-.449-5.473,2.412-8.599,1.389-1.517,3.322-2.255,5.912-2.255h14.469c.738.019,3.148.365,3.148,4.035v17.379c-.25,1.804-1.664,2.201-2.453,2.167-.544-.031-1.81-.305-1.811-2.109l.264-6.761c.024-.506.176-5.016-2.17-7.479-.979-1.029-2.266-1.572-3.722-1.572h-5.091c-.395.001-2.083.096-3.548,1.518-1.4,1.361-2.11,3.433-2.11,6.156,0,.994.806,1.8,1.8,1.8s1.8-.806,1.8-1.8c0-3.81,1.728-4.062,2.022-4.075h.045s.007,0,.007,0h5.075c.471,0,.813.14,1.112.452.975,1.02,1.243,3.502,1.183,4.842l-.266,6.849c0,1.982.751,3.433,1.825,4.388-.152,1.645-1.171,6.139-7.657,9.006-.909.402-1.32,1.465-.919,2.375.298.672.956,1.072,1.647,1.072.243,0,.49-.049.727-.154,7.107-3.142,9.09-8.062,9.631-10.912,1.581.079,3.245-.49,4.459-1.7,1.215,1.21,2.88,1.779,4.458,1.7.54,2.85,2.524,7.77,9.632,10.912.236.104.483.154.727.154.69,0,1.35-.4,1.647-1.072.401-.91-.01-1.972-.919-2.375-6.499-2.873-7.509-7.377-7.658-9.014,1.074-.964,1.825-2.432,1.824-4.451l-.266-6.793c-.06-1.325.209-3.808,1.184-4.827.299-.312.642-.452,1.112-.452h5.084c.362.016,2.065.291,2.065,4.074,0,.994.806,1.8,1.8,1.8s1.8-.806,1.8-1.8c0-2.723-.71-4.794-2.11-6.156-1.478-1.435-3.183-1.518-3.559-1.518h-.005c-.022,0-.04,0-.052,0h-5.329c-.828,0-2.438.543-3.417,1.572-2.346,2.463-2.194,6.974-2.171,7.461l.264,6.708c0,1.875-1.266,2.149-1.81,2.18-.798.034-2.204-.363-2.453-2.167v-17.379c0-3.67,2.41-4.016,3.127-4.035h14.49c2.59,0,4.523.738,5.912,2.255,2.861,3.125,2.417,8.544,2.411,8.62l-2.017,25.426c-.079.991.66,1.858,1.651,1.937.049.004.097.006.145.006.93,0,1.718-.715,1.792-1.658l2.015-25.401c.026-.285.605-7.027-3.325-11.342ZM59.666,29.987c.075-1.032.36-1.592.594-1.676.277-.097.811.103,1.104.412.63.661,1.279,2.152,1.54,2.935l.065.169c3.295,7.38,9.203,14.99,12.242,18.662h-7.434c-4.459-5.524-8.594-13.815-8.112-20.502ZM51.504,31.827l.065-.167c.261-.785.909-2.275,1.54-2.937.292-.309.827-.511,1.104-.411.233.084.519.644.594,1.676.482,6.687-3.653,14.978-8.112,20.502h-7.433c3.039-3.672,8.947-11.282,12.242-18.662ZM57.236,52.831c-1.583-1.823-3.834-2.342-4.977-2.342h-1.06c2.41-3.413,4.698-7.631,6.036-12.012,1.338,4.381,3.626,8.599,6.036,12.012h-1.06c-1.142,0-3.393.518-4.977,2.342Z" fill="#010101"/>
</svg>