<?xml version="1.0" encoding="UTF-8"?>
<svg id="a" data-name="Layer 1" xmlns="http://www.w3.org/2000/svg" width="117.019" height="117.02" viewBox="0 0 117.019 117.02">
  <path d="M80.688,33.558c-6.308-5.374-14.515-8.754-21.952-9.04-.238-.009-.553-.018-.935-.018h0c-2.23,0-4.605.307-6.867.888-12.692,3.258-26.182,15.91-26.182,32.938,0,18.643,15.183,33.811,33.845,33.811s33.845-15.167,33.845-33.811c0-9.514-4.175-18.31-11.755-24.768ZM84.774,73.454l-9.499-.004c1.246-3.947,2.073-8.443,2.226-13.404l11.293-.027c-.27,4.878-1.703,9.444-4.02,13.435ZM28.413,60.164l10.933-.026c.16,4.921.984,9.38,2.22,13.3l-9.156-.003c-2.287-3.947-3.708-8.455-3.997-13.271ZM32.511,43.59h8.988c-1.19,3.833-1.987,8.171-2.151,12.948l-10.934.026c.301-4.805,1.815-9.177,4.098-12.974ZM88.778,56.42l-11.284.027c-.171-4.741-.966-9.049-2.148-12.857h9.319c2.279,3.675,3.797,7.962,4.113,12.83ZM73.89,56.455l-13.698.033.018-12.898h11.342c1.259,3.68,2.151,7.984,2.339,12.866ZM60.214,39.99l.016-11.411c2.129.242,6.628,4.241,9.893,11.411h-9.909ZM56.63,28.578l-.016,11.413h-9.892c3.273-7.186,7.785-11.187,9.908-11.413ZM56.609,43.59l-.018,12.907-13.641.033c.182-4.912,1.077-9.24,2.343-12.94h11.315ZM42.945,60.129l13.642-.033-.018,13.347-11.202-.004c-1.315-3.783-2.246-8.237-2.421-13.31ZM56.564,77.043l-.015,11.153c-2.088-.228-6.49-4.135-9.732-11.156l9.748.004ZM60.148,88.21l.015-11.166,9.861.004c-3.319,7.183-7.855,11.109-9.877,11.162ZM60.168,73.445l.018-13.357,13.714-.033c-.169,5.108-1.103,9.591-2.426,13.394l-11.307-.004ZM82.037,39.99h-7.976c-1.616-3.962-3.643-7.232-5.743-9.7,4.979,1.967,9.926,5.237,13.719,9.7ZM48.967,29.79c-2.255,2.519-4.454,5.962-6.183,10.2h-7.757c3.843-4.758,8.899-8.288,13.94-10.2ZM34.859,77.035l8.016.003c1.693,4.093,3.82,7.433,6.004,9.896-5.587-1.893-10.438-5.37-14.02-9.899ZM67.813,87.104c2.235-2.476,4.419-5.872,6.151-10.054l8.357.003c-3.689,4.656-8.717,8.202-14.509,10.051Z" fill="#010101"/>
</svg>