<?xml version="1.0" encoding="UTF-8"?>
<svg id="a" data-name="Layer 1" xmlns="http://www.w3.org/2000/svg" width="117.019" height="117.019" viewBox="0 0 117.019 117.019">
  <path d="M79.218,74.373h-34.297c-.922,0-1.695-.696-1.79-1.614l-3.24-31.202c-.053-.507.111-1.013.453-1.391.342-.379.827-.595,1.337-.595h45.719c1.648,0,3.176.82,4.086,2.195.909,1.375,1.068,3.103.424,4.62l-11.026,26.87c-.277.675-.935,1.116-1.665,1.116ZM46.544,70.773h31.467l10.576-25.774c.255-.601.012-1.07-.104-1.246-.115-.175-.453-.582-1.083-.582h-43.722l2.866,27.603Z" fill="#010101"/>
  <path d="M41.682,43.172c-.717,0-1.395-.432-1.675-1.139l-5.536-13.987h-9.534c-.994,0-1.8-.806-1.8-1.8s.806-1.8,1.8-1.8h10.758c.738,0,1.402.451,1.674,1.138l5.986,15.125c.365.924-.087,1.97-1.012,2.336-.217.086-.441.127-.661.127Z" fill="#010101"/>
  <path d="M49.977,81.174c2.012,0,3.65,1.637,3.65,3.649s-1.637,3.65-3.65,3.65-3.649-1.638-3.649-3.65,1.637-3.649,3.649-3.649M49.977,77.966c-3.781,0-6.856,3.075-6.856,6.856s3.075,6.858,6.856,6.858,6.857-3.076,6.857-6.858-3.076-6.856-6.857-6.856h0Z" fill="#010101"/>
  <path d="M70.846,81.174c2.012,0,3.65,1.637,3.65,3.649s-1.637,3.65-3.65,3.65-3.649-1.638-3.649-3.65,1.637-3.649,3.649-3.649M70.846,77.966c-3.781,0-6.856,3.075-6.856,6.856s3.075,6.858,6.856,6.858,6.857-3.076,6.857-6.858-3.076-6.856-6.857-6.856h0Z" fill="#010101"/>
</svg>