<?xml version="1.0" encoding="UTF-8"?>
<svg id="a" data-name="Layer 1" xmlns="http://www.w3.org/2000/svg" width="117.019" height="117.02" viewBox="0 0 117.019 117.02">
  <path d="M80.811,78.363l-.104-36.195c.011-.344.169-8.056-6.09-11.512v-5.824h-3.6v8.143l1.1.464c5.083,2.145,4.998,8.362,4.991,8.679l.104,36.405.027.317c-.002.035-.006.07-.009.106-.01.141-.019.283-.019.427,0,1.116-.908,2.024-2.024,2.024-.958,0-1.755-.674-1.952-1.598l-.063-10.357-.011-4.332c0-.994-.806-1.8-1.8-1.8s-1.8.806-1.8,1.8v11.924l.037,2.727.008.147c.005.055.023.104.03.159l.029,4.825.027.312c-.002.035-.006.07-.009.105-.01.141-.019.283-.019.427,0,1.116-.908,2.024-2.024,2.024-.888,0-1.642-.577-1.905-1.398.013-.199.024-.442-.017-.731l-.098-16.197-.004-2.506c0-.994-.806-1.8-1.8-1.8s-1.8.806-1.8,1.8v1.828s0,0,0,.001v.016s0,16.488,0,16.488l.036.909.007.1c.011.112.045.215.062.324,0,.017-.002.033-.002.05,0,1.116-.908,2.024-2.024,2.024-1.037,0-1.896-.788-1.988-1.734l-.004-2.435c.02-.192.03-.386.03-.583,0-.055.006-.109.01-.163.016-.21.037-.507-.011-.852l-.042-6.233-.019-11.56c0-.994-.806-1.8-1.8-1.8s-1.8.806-1.8,1.8v2.353c-.026.125-.042.253-.041.386l.041,6.093v10.448c-.214.888-1.01,1.551-1.962,1.551-1.037,0-1.896-.788-1.988-1.734l-.036-21.847c-.014-1.14-.182-5.242-1.683-7.953,3.733-1.466,6.326-3.552,7.692-6.244,1.98-3.9.575-7.542.515-7.695-.364-.918-1.399-1.363-2.318-1.007-.922.356-1.381,1.396-1.033,2.32.036.095.865,2.368-.399,4.803-1.24,2.389-4.069,4.18-8.394,5.333h-.923l-.472,1.079c-3.211,7.339-8.362,15.024-10.666,14.318-.623-.193-1.045-.456-1.102-.685-.169-.692.891-2.38,1.948-3.424l.254-.249.141-.327c1.003-2.332,6.002-14.144,5.896-17.673.214-1.538,5.737-6.918,12.062-11.748l.707-.541v-7.839h-3.6v6.062c-5.122,3.965-12.87,10.564-12.766,14.123.059,2.004-3.121,10.379-5.474,15.884-.945.993-3.331,3.832-2.667,6.576.261,1.077,1.086,2.521,3.538,3.279,5.658,1.753,11.473-8.747,14.105-14.295.515,1.206,1.005,3.439,1.04,5.923v21.062s.045,1.007.045,1.007c.277,2.901,2.676,5.089,5.579,5.089.895,0,1.739-.216,2.491-.589.881,1.97,2.826,3.316,5.095,3.316,1.712,0,3.245-.771,4.277-1.981.923.667,2.044,1.072,3.268,1.072,3.102,0,5.624-2.523,5.624-5.624,0-.055.006-.109.01-.164.016-.209.037-.506-.011-.851v-.073c.601.219,1.245.348,1.922.348,3.102,0,5.624-2.523,5.624-5.624,0-.055.006-.109.01-.163.016-.209.037-.504-.01-.847Z" fill="#010101"/>
</svg>