<?xml version="1.0" encoding="UTF-8"?>
<svg id="a" xmlns="http://www.w3.org/2000/svg" xmlns:xlink="http://www.w3.org/1999/xlink" version="1.1" viewBox="0 0 117 117">
  <!-- Generator: Adobe Illustrator 29.5.0, SVG Export Plug-In . SVG Version: 2.1.0 Build 137)  -->
  <defs>
    <style>
      .st0 {
        clip-path: url(#clippath-1);
      }

      .st1 {
        clip-path: url(#clippath);
      }
    </style>
    <clipPath id="clippath">
      <path d="M24.4,51.7h8.5c.6,0,.6.4.5,1v8.1l-9.1-9.1Z"/>
    </clipPath>
    <clipPath id="clippath-1">
      <rect x="-56.3" y="-286.1" width="508" height="450"/>
    </clipPath>
  </defs>
  <path d="M46.2,28.3h0c8.9,0,14.9,2.6,18.1,7.8-2.5,6.4-3.8,18.5,5.7,27.6h.1c0,.1.2.2.2.2,1.7,1.3,3.6,2,5.5,2,2.7,0,5.2-1.4,6.3-3.8,2-4.1-.8-8.5-2.2-10.2-3.2-4.1-.9-10.5,2.2-13.1l3.9-3.3c5.6.4,8.3,1.7,8.8,4.4l-6-1.4,1.5,3.4c-.8-.3-1.6-.4-2.3-.4-1.8,0-3.3.8-4.2,2.3-1.7,2.8.4,5.6,3,9.3.6.8,1.2,1.6,1.7,2.4,2,3.1,4.7,7.6,3.8,11.5-.5,2.3-2.1,4.3-5,6.1l-3,1.9,2,3,4.4,6.4.3.4.4.3c1.2,1,2.5,2.1,3.6,3.1h-7.8c-.6-3.7-2.6-9.4-8.7-11.9-1.2-.5-2.7-.6-4.9-.6s-1.3,0-2.1,0h-.8s-4.2,0-4.2,0l.8,4.1.7,3.3.2,1.2.9.8c1.2,1,2.5,2.1,3.6,3.1h-8.9c0-3-.7-7.3-3.1-11h0s0,0,0,0c-.1-.2-.2-.4-.3-.5-.5-.8-1.5-2.6-4.1-2.7h0s0,0,0,0c-1.6,0-2.3.8-3.4,2.2-.5.6-1.1,1.3-1.7,2-1.2,1.5-2.5,3-2.5,3l-1.6,1.9,1.3,2.1,2,3.1h-9.3c3.1-5,6.3-11.7,5.5-14.9l-1.2-5.1-4.2,3.2c-2.1,1.6-3.4,2.5-4.7,3.5-.8.6-1.7,1.3-2.9,2.1-1.7,1.3-3.5,1.9-5.4,1.9-2.8,0-5.5-1.4-7.4-3.6-1.6-1.9-2.2-4.2-1.8-6.2v-.2s0-.2,0-.2c.3-5.1,4.2-8.7,8.2-11-1,1.6-2.1,3.3-3.2,4.8-2,2.8-2.4,6.4-1,9,1,1.9,2.9,3.1,5,3.1s5.8-2,8.9-5.9c3.6-4.5,7.4-6.8,11.4-6.8,3.1,0,5.4,1.5,5.4,1.5h0l5.1,3.6.3-6.2c.4-8.4-5.3-13.3-10.3-15.5.3-1.7,0-3.2-.5-4.3-2-5-9.1-8.5-15.7-10.8,4.1-.9,8.9-1.7,13.6-1.7M46.2,24.9c-13,0-26.3,5.3-26.3,5.3,0,0,31.9,6.1,24.3,17.1,0,0,11.9,2.5,11.4,13.2,0,0-3-2.1-7.3-2.1s-9,1.7-14.1,8.1c-2.7,3.3-4.8,4.6-6.2,4.6-2.6,0-3.2-3.8-1.2-6.6,2.8-3.9,8-12.1,7.7-13.6,0,0-18.1,4.6-18.9,17.6-1.4,7,5.1,14,12.6,14s5-.8,7.5-2.6c3-2.2,4.1-3.1,7.6-5.7.6,2.7-5.3,13.6-8.8,17.6h22.1l-5.3-8.4s4.9-5.9,4.9-5.9h0c.8,0,.9.6,1.6,1.7,3.5,5.4,2.4,12.6,2.4,12.6h19.8c0-2.1-8.7-9.2-8.7-9.2l-.7-3.3c1.1,0,2,0,2.8,0,1.7,0,3,0,3.6.3,7.3,3.1,6.9,12.2,6.9,12.2h18.2c0-2.1-8.6-9.2-8.6-9.2l-4.4-6.4c11.3-7.1,6-16.9,2.3-22.5-2.2-3.3-5.3-6.9-4.6-8,.3-.4.7-.6,1.3-.6,1.6,0,4.3,1.7,6.2,4.3.3.4.6.5,1,.5,1.5,0,3.4-2.1,3.4-2.1h-2c0,.1-1.9-4.1-1.9-4.1l5.5,1.3-.2,1.5,2.4-2.4-4.4-4c-.8-8.4-12.4-7.8-15.8-7.9-5.8-.2-6-3.4-6-3.4-1.9,6.6,3.3,7.6,3.3,7.6-4.1,3.6-7.2,12-2.6,17.8,3.9,5,1.8,8.4-1.4,8.4s-2.3-.4-3.4-1.3c-11.3-10.8-4.3-25.2-4.3-25.2-4.1-8.5-13-11.1-21.9-11.1h0Z"/>
  <g>
    <g>
      <path d="M24.4,51.7h8.5c.6,0,.6.4.5,1v8.1"/>
      <g>
        <path d="M24.4,51.7h8.5c.6,0,.6.4.5,1v8.1l-9.1-9.1Z"/>
        <g class="st1">
          <g>
            <rect x="-56.3" y="-286.1" width="508" height="450"/>
            <g>
              <rect x="-56.3" y="-286.1" width="508" height="450"/>
              <g class="st0">
                <g>
                  <g>
                    <g>
                      <path d="M-10.2,69.3c-.6,0-1-.4-1.1-1l-1.2-15.3c0-.2-.4-4.2,2-6.8,1.2-1.4,3-2.1,5.2-2.1H3.4c1.1,0,4,.8,4,4.6v10.6c-.3,2.3-2.1,3.4-3.8,3.3-1.5,0-3.1-1.2-3.1-3.5l.2-4.1c0-.8-.1-2.3-.7-2.9-.2-.2-.4-.3-.7-.3l-3-2.1v2.1s0-.9,0-.9v.9c-.2,0-1.2.2-1.2,2.4s-.5,1.1-1.1,1.1-1.1-.5-1.1-1.1c0-1.6.4-2.9,1.3-3.7.9-.9,1.9-.9,2.1-.9H-.7c.9,0,1.6.3,2.2.9,1.4,1.5,1.3,4.2,1.3,4.5l-.2,4.1c0,1.1.8,1.2,1.1,1.3.5,0,1.3-.2,1.5-1.3v-10.4c0-2.2-1.4-2.4-1.9-2.4H-5.3c-1.6,0-2.7.4-3.5,1.4-1.7,1.9-1.4,5.1-1.4,5.2l1.2,15.3c0,.6-.4,1.1-1,1.2,0,0,0,0,0,0h0Z"/>
                      <path d="M.6,46.4c-.2,0-.5,0-.7-.3-.5-.4-.5-1.1-.1-1.5,2.8-3.3,5.5-8.5,5.2-12.7,0-.6-.2-1-.4-1-.2,0-.5,0-.7.2-.4.4-.8,1.3-.9,1.8h0c-2.7,6.1-8.3,12.4-8.5,12.6-.4.4-1.1.5-1.5,0-.4-.4-.5-1.1,0-1.5,0,0,5.6-6.3,8.1-11.9.1-.3.6-1.7,1.4-2.5.6-.7,1.8-1.2,3-.8.6.2,1.6.9,1.8,2.9.4,5.1-2.8,10.8-5.7,14.2-.2.3-.5.4-.8.4h0Z"/>
                      <path d="M-2.5,69.3c-.4,0-.8-.2-1-.6-.2-.5,0-1.2.6-1.4,4.7-2.1,4.6-5.6,4.6-5.8,0-.6.4-1.1,1-1.1.6,0,1.1.4,1.1,1,0,.2.3,5.2-5.9,7.9-.1,0-.3,0-.4,0Z"/>
                    </g>
                    <g>
                      <path d="M22.9,69.3s0,0,0,0c-.6,0-1-.6-1-1.2l1.2-15.3s.3-3.3-1.4-5.2c-.8-.9-2-1.4-3.5-1.4h-8.7c-.4,0-1.9.2-1.9,2.4v10.4c.1,1.1,1,1.3,1.5,1.3.3,0,1.1-.2,1.1-1.3l-.2-4c0-.3-.1-3,1.3-4.5.6-.6,1.4-.9,2.2-.9l3,2.2v-2.2s0,0,0,0h0c.2,0,1.2,0,2.1.9.8.8,1.3,2.1,1.3,3.7s-.5,1.1-1.1,1.1-1.1-.5-1.1-1.1c0-2.3-1-2.4-1.2-2.4h-3.1c-.3,0-.5,0-.7.3-.6.6-.7,2.1-.7,2.9l.2,4.1c0,2.3-1.6,3.4-3.1,3.5-1.7,0-3.5-1-3.7-3.3h0v-10.6c0-3.8,2.9-4.6,4-4.6h8.7c2.2,0,3.9.7,5.1,2.1,2.4,2.6,2,6.6,2,6.8l-1.2,15.2c0,.6-.5,1-1.1,1ZM16.5,51.9h0,0Z"/>
                      <path d="M12.1,46.4c-.3,0-.6-.1-.8-.4-2.8-3.4-6-9.1-5.7-14.2.1-2,1.2-2.7,1.8-2.9,1.1-.4,2.3.1,3,.8.8.8,1.3,2.2,1.4,2.5,2.6,5.7,8.1,11.9,8.1,11.9.4.4.4,1.1,0,1.5-.4.4-1.1.4-1.5,0-.2-.3-5.8-6.5-8.5-12.5h0c-.2-.6-.5-1.5-.9-1.9-.2-.2-.5-.3-.7-.2-.1,0-.3.4-.4,1-.3,4.2,2.4,9.4,5.2,12.7.4.5.3,1.1-.1,1.5-.2.2-.4.3-.7.3h0Z"/>
                      <path d="M15.2,69.3c-.1,0-.3,0-.4,0-6.2-2.7-5.9-7.7-5.9-7.9,0-.6.6-1,1.1-1,.6,0,1,.5,1,1.1,0,.2-.1,3.7,4.6,5.8.5.2.8.9.6,1.4-.2.4-.6.6-1,.6h0Z"/>
                    </g>
                  </g>
                  <path d="M139,69.1l-8.1-8.1v-8.6h-8.4l-3.3,5.1-5.7-13h17.5v-7.9h-13.2l-6.7-7.8h45.7l-6.8,7.8h-10.9v32.5h0ZM132.8,60.2l4.2,4.1v-29.7h12l3.3-3.8h-37.1l3.3,3.8h14.3v11.9h-16.4l3.1,6.9,1.9-2.9h11.5v9.7h0Z"/>
                  <path d="M22.9,24.8c-.3,0-.5,0-.7-.2-.2-.1-.3-.2-.5-.4,0,0,0,0,0,0-.3-.5-.4-1.1,0-1.6l32.6-57.4c.4-.7,1.3-1,2-.6.7.4,1,1.3.6,2L24.2,24c-.3.5-.8.8-1.3.8h0Z"/>
                  <path d="M117.6,24.8s0,0,0,0h0c-.5,0-.9-.3-1.2-.6h0s0,0,0,0h0s0,0,0-.1l-32-57.4h0c-.4-.7-.1-1.6.6-2,.7-.4,1.6-.1,2,.6l32,57.4c.2.4.2.8.1,1.1,0,0,0,0,0,0h0c-.1.4-.3.7-.7.9-.2.1-.5.2-.7.2h0Z"/>
                  <path d="M55.5,134.7c-.5,0-1-.3-1.3-.7,0,0,0,0,0,0l-32.6-57.4c-.4-.7-.2-1.6.6-2,.7-.4,1.6-.2,2,.6l32.6,57.4c.4.7.2,1.6-.6,2-.2.1-.5.2-.7.2h0Z"/>
                  <path d="M85.6,134.7c-.2,0-.5,0-.7-.2-.7-.4-1-1.3-.6-2l32-57.4c.4-.7,1.3-1,2-.6.7.4,1,1.3.6,2l-32,57.4c-.3.5-.8.8-1.3.8h0Z"/>
                  <g>
                    <g>
                      <path d="M62.4,56.3v-.3l2.8-2.8c.3-.3.6-.7.8-1s.3-.7.3-1,0-.6-.2-.8c-.1-.2-.3-.4-.6-.6-.3-.1-.6-.2-.9-.2-.5,0-.9.1-1.2.4-.3.3-.5.7-.6,1.1h-.4c0-.4.1-.7.3-1,.2-.3.4-.5.8-.7.3-.2.7-.2,1.1-.2s.8,0,1.1.3c.3.2.6.4.7.7.2.3.3.6.3,1s0,.6-.2.9-.3.5-.4.7-.4.4-.6.7l-2.7,2.7v-.2c0,0,3.9,0,3.9,0v.3h-4.2Z"/>
                      <path d="M62.6,56.8h0c0,0-.5,0-.5,0v-.9h0c0,0,0-.2,0-.2h.2l2.6-2.7c.3-.3.6-.6.7-.9.2-.3.2-.5.2-.8s0-.4-.2-.6-.3-.3-.5-.4c-.5-.3-1.3-.2-1.7.2-.3.2-.4.5-.4.9v.3h-1.1v-.4c0-.4.2-.8.4-1.2.2-.3.5-.6.9-.8.7-.4,1.8-.4,2.5,0,.4.2.7.5.9.8.2.3.3.7.3,1.2s0,.7-.2,1c-.1.3-.3.6-.5.8-.2.2-.4.5-.6.7l-1.9,1.9h3.2v1.1h-4.3c0,0,0,0,0,0Z"/>
                    </g>
                    <g>
                      <path d="M71.2,56.4c-.4,0-.8-.1-1.2-.4-.4-.3-.6-.7-.9-1.2-.2-.5-.3-1.2-.3-2s.1-1.4.3-2c.2-.5.5-.9.9-1.2.4-.3.8-.4,1.2-.4s.8.1,1.2.4c.4.3.6.7.9,1.2.2.5.3,1.2.3,2s-.1,1.4-.3,2c-.2.5-.5.9-.9,1.2-.4.3-.8.4-1.2.4ZM71.2,56c.4,0,.7-.1,1-.4.3-.2.5-.6.7-1.1s.3-1.1.3-1.8,0-1.3-.3-1.8-.4-.8-.7-1.1c-.3-.2-.6-.4-1-.4s-.7.1-1,.4c-.3.2-.5.6-.7,1.1s-.3,1.1-.3,1.8,0,1.3.3,1.8.4.8.7,1.1c.3.2.6.4,1,.4ZM69.7,55.4l-.2-.3,3.2-4.8.2.3-3.2,4.8Z"/>
                      <path d="M71.2,56.8c-.5,0-1-.2-1.4-.5-.4-.3-.7-.8-1-1.4-.2-.6-.3-1.3-.3-2.1s.1-1.5.3-2.1c.2-.6.6-1.1,1-1.4.8-.6,2-.6,2.8,0,.4.3.7.8,1,1.4.2.6.3,1.3.3,2.1s-.1,1.5-.3,2.1c-.2.6-.6,1.1-1,1.4-.4.3-.9.5-1.4.5h0ZM70.3,55.2c0,0,.1.1.2.2.5.4,1,.4,1.5,0,.2-.2.5-.5.6-.9.2-.4.3-1,.3-1.6s0-.9-.1-1.3l-2.4,3.7h0ZM71.2,50c-.3,0-.5,0-.8.3-.2.2-.5.5-.6.9-.2.4-.3,1-.3,1.6s0,.9.1,1.3l2.4-3.7c0,0-.1-.1-.2-.2-.2-.2-.5-.3-.8-.3h0Z"/>
                    </g>
                    <g>
                      <path d="M76,56.3v-.3h2.1v-6.4h.2s-2.2,1.1-2.2,1.1v-.3c-.1,0,2-1.1,2-1.1h.3v6.7h1.9v.3h-4.3Z"/>
                      <polygon points="80.7 56.7 75.6 56.7 75.6 55.6 77.7 55.6 77.7 50.3 75.9 51.2 75.4 50.2 77.7 49.1 77.8 49.1 78.1 49 78.8 49 78.8 49.4 79.3 49.5 78.8 49.8 78.8 55.6 80.7 55.6 80.7 56.7"/>
                    </g>
                    <g>
                      <path d="M84.7,56.4c-.4,0-.8-.1-1.2-.3s-.6-.5-.8-.8-.3-.7-.3-1.2,0-.5,0-.7.1-.4.2-.6.2-.4.4-.7l1.8-2.8h.4l-2.2,3.2h-.2c.1-.2.3-.4.6-.5s.6-.3,1-.3.8.1,1.1.3c.3.2.6.5.8.8.2.4.3.7.3,1.2s0,.8-.3,1.2-.5.6-.8.8c-.3.2-.7.3-1.2.3h0ZM84.7,56c.3,0,.7,0,1-.3s.5-.4.7-.7.3-.6.3-1,0-.7-.3-1c-.2-.3-.4-.5-.7-.7s-.6-.3-1-.3-.7,0-1,.3c-.3.2-.5.4-.7.7-.2.3-.3.6-.3,1s0,.7.3,1,.4.5.7.7.6.3,1,.3Z"/>
                      <path d="M84.7,56.8c-.5,0-.9-.1-1.3-.4-.4-.2-.7-.6-1-1-.2-.4-.3-.9-.3-1.4s0-.5.1-.8c0-.2.2-.5.3-.7.1-.2.2-.4.4-.7l2-3h1.3l-1.6,2.4c.5,0,1.1,0,1.5.3.4.2.7.6,1,1,.2.4.3.9.3,1.4s-.1.9-.3,1.4c-.2.4-.6.7-1,1-.4.2-.9.4-1.3.4h0ZM84.7,52.5c-.3,0-.5,0-.8.2-.2.1-.4.3-.6.6-.1.2-.2.5-.2.8s0,.6.2.8.3.4.6.6c.5.3,1.1.3,1.5,0,.2-.1.4-.3.6-.6.1-.2.2-.5.2-.8s0-.6-.2-.8c-.1-.2-.3-.4-.6-.6-.2-.1-.5-.2-.8-.2h0Z"/>
                    </g>
                  </g>
                </g>
              </g>
            </g>
          </g>
        </g>
      </g>
    </g>
    <path d="M33.4,62.5c-1,0-1.7-.8-1.7-1.7v-7.3h-7.3c-1,0-1.7-.8-1.7-1.7s.8-1.7,1.7-1.7h8.4c.9,0,1.4.3,1.7.5.8.7.7,1.7.7,2.2v8c0,1-.8,1.7-1.7,1.7h0Z"/>
  </g>
</svg>