<?xml version="1.0" encoding="UTF-8"?>
<svg id="a" data-name="Layer 1" xmlns="http://www.w3.org/2000/svg" width="117.02" height="117.019" viewBox="0 0 117.02 117.019">
  <path d="M75.682,45.438c0-11.918-8.987-20.514-21.882-20.514h-23.348v3.712h23.054c10.746,0,17.975,7.229,17.975,16.9,0,10.453-7.815,16.705-19.049,16.705h-21.98v3.712h20.612l21.258,26.142h5.08l-21.844-26.435c11.723-.879,20.124-8.499,20.124-20.221Z" fill="#010101"/>
  <path d="M86.567,28.839h-30.404c-1.094,0-1.98-.887-1.98-1.98s.886-1.98,1.98-1.98h30.404c1.094,0,1.98.887,1.98,1.98s-.886,1.98-1.98,1.98Z" fill="#010101"/>
  <path d="M86.567,42.821H31.993c-1.094,0-1.98-.887-1.98-1.98s.886-1.98,1.98-1.98h54.574c1.094,0,1.98.887,1.98,1.98s-.886,1.98-1.98,1.98Z" fill="#010101"/>
</svg>