<?xml version="1.0" encoding="UTF-8"?>
<svg id="a" data-name="Layer 1" xmlns="http://www.w3.org/2000/svg" width="117.02" height="117.019" viewBox="0 0 117.02 117.019">
  <path d="M74.863,89.821c-.993,0-1.798-.804-1.8-1.796l-.027-12.925c-.002-.994.802-1.802,1.796-1.804h.004c.993,0,1.798.803,1.8,1.796l.027,12.925c.002.994-.802,1.802-1.796,1.804h-.004Z" fill="#010101"/>
  <path d="M36.837,89.821h-.004c-.994-.002-1.798-.81-1.796-1.804l.027-12.925c.002-.992.808-1.796,1.8-1.796h.004c.994.002,1.798.81,1.796,1.804l-.027,12.925c-.002.992-.808,1.796-1.8,1.796Z" fill="#010101"/>
  <path d="M56.029,66.381c-.335,0-.672-.01-1.011-.03-4.41-.267-8.355-2.295-10.051-5.167l3.101-1.83c1.087,1.843,3.967,3.21,7.167,3.403,3.72.222,7.299-1.188,8.333-3.284l3.229,1.592c-1.582,3.207-5.922,5.316-10.768,5.316Z" fill="#010101"/>
  <path d="M87.874,91.981H23.826c-.494,0-.966-.202-1.306-.561s-.518-.841-.492-1.333c.01-.188.013-.442.019-.753.346-20.837,14.304-27.83,25.953-30.027l.667,3.537c-14.683,2.77-22.414,11.359-22.991,25.537h60.349c-.576-14.178-8.307-22.767-22.991-25.537l.667-3.537c11.649,2.197,25.608,9.19,25.952,30.028.005.311.009.563.019.752.026.493-.152.975-.492,1.333s-.812.561-1.306.561Z" fill="#010101"/>
  <path d="M55.85,28.894c7.197,0,13.053,5.856,13.053,13.053s-5.856,13.053-13.053,13.053-13.053-5.856-13.053-13.053,5.856-13.053,13.053-13.053M55.85,25.294c-9.197,0-16.653,7.456-16.653,16.653s7.456,16.653,16.653,16.653,16.653-7.456,16.653-16.653-7.456-16.653-16.653-16.653h0Z" fill="#010101"/>
  <path d="M78.843,43.373h-37.221c-.994,0-1.8-.806-1.8-1.8s.806-1.8,1.8-1.8h37.221c.994,0,1.8.806,1.8,1.8s-.806,1.8-1.8,1.8Z" fill="#010101"/>
</svg>