<?xml version="1.0" encoding="UTF-8"?>
<svg id="a" xmlns="http://www.w3.org/2000/svg" version="1.1" viewBox="0 0 117 117">
  <!-- Generator: Adobe Illustrator 29.5.0, SVG Export Plug-In . SVG Version: 2.1.0 Build 137)  -->
  <defs>
    <style>
      .st0 {
        fill: #010101;
      }
    </style>
  </defs>
  <path class="st0" d="M41.4,77.8c-6.9,0-10.4-4.1-12.1-7.6-.3-.7-2-4.4-.4-8.7,2.4-6.6,10-7.9,10.3-8,.9-.2,1.7.5,1.9,1.4.1.9-.5,1.7-1.4,1.9,0,0-6,1-7.7,5.8-1.1,3.2.2,6.1.3,6.2,3.1,6.4,8.8,5.9,10.7,5.7.4,0,.6,0,.8,0,.9.1,1.5.9,1.4,1.8-.1.8-.8,1.5-1.7,1.4,0,0-.1,0-.2,0-.7,0-1.3,0-1.9,0h0Z"/>
  <g>
    <path class="st0" d="M64.5,56.2c-6,0-10.6-4.4-12.4-8.6-2.3-5.3-.6-10.3.7-12.8,3.2-6.6,11.2-10.7,19.3-10.1,7.4.6,13.4,6.3,16.6,15.8v.2c.5.8,0,1.8-.8,2.1-.8.4-1.8,0-2.2-.8,0,0,0-.2-.2-.5-1.6-4.8-5.5-13-13.7-13.6-6.9-.5-13.5,2.9-16.1,8.3-1,2-2.4,6-.6,10,1.5,3.6,5.5,7,10.1,6.6,3.8-.3,6.9-2.9,7.4-6,0-.6,0-1.4,0-1.8-.2-.9.4-1.8,1.2-2,.9-.2,1.8.4,2,1.2.2.8.3,2,.1,3-.6,4.7-5,8.5-10.4,8.9-.3,0-.6,0-.9,0h0Z"/>
    <path class="st0" d="M102.5,50.1c-1.1-2.4-2.8-4.6-4.9-6.3-4.2-3.4-8.7-4-10.4-4.1-.9,0-1.7.6-1.7,1.5,0,.9.6,1.7,1.5,1.7,1.4,0,5.1.6,8.5,3.4,1.2,1,2.8,2.6,4,5.1.1.3,3,6.6,0,12.5-1.4,2.8-5.6,7-8.8,6.7,0,0-.2,0-.2,0,.7,1,1,2.1,1,3.3,4.6-.3,9.2-5,11-8.6,3.5-7.2.3-14.6,0-15.4h0Z"/>
    <path class="st0" d="M77.6,90.1c-.5,0-1,0-1.5,0-4.8-.4-9.3-3.1-10.5-4.2-.7-.6-.7-1.6-.1-2.3.6-.7,1.6-.7,2.3-.1.8.8,4.6,3.1,8.6,3.4,3,.2,5.5-.4,7.5-1.8,2.1-1.5,3-3.3,4-5.5,1.2-2.4,1.9-5.1,2.1-7.9,0-.9.9-1.6,1.8-1.5.9,0,1.6.9,1.5,1.8-.3,3.2-1.1,6.2-2.4,9-1.1,2.4-2.3,4.8-5.1,6.8-2.3,1.6-5.1,2.5-8.2,2.5h0Z"/>
    <path class="st0" d="M55.6,32.2c-.6-.2-2.8-.5-6.9,2.5-.3.2-.7.6-1.2,1-2.7,2.4-8.4,7.5-13.8,5-14-6.4-20,2.8-20.1,2.9l-.4.6.2.7c.2.8.8,1,1.2,1.1,4.8,1.9,7,3.9,6.9,5.1,0,.2,0,.2,0,.4,0,.4-.2.9-.2,1.9v.4c-.2,1.6-.1,2.8,1.8,5.7,2,2.9,4.7,4.2,6.4,4.8-.1-1.2.1-2.3.7-3.2-1.2-.4-3.1-1.4-4.4-3.4-1.4-2.2-1.4-2.7-1.3-3.6,0-.2,0-.3,0-.5,0-.8.1-1.1.2-1.4,0-.3.1-.6.1-1.1,0-3.2-3.5-5.7-7-7.3,2.1-1.7,6.6-3.8,14.5-.2,7.4,3.4,14.4-2.9,17.3-5.5.4-.4.7-.6.9-.8,2.8-2.1,4.1-2,4.1-2-.1,0-.2,0-.2,0l1-3.1h0Z"/>
    <path class="st0" d="M67.1,84.2c0,0-.1.1-.2.2-.4.6-3.7,3.8-8.2,4.4-3.9.5-6.8-1.3-7.8-1.9-3.8-2.4-6-6.9-5.7-11.3.2-2.9,1.2-5.4,2.1-6.7,1-1.4,4.4-6,8.8-5.7,1.5.1,4.6,1,5.6,3.8.8,2.4,0,3.4-.3,3.7v.2c-.7.7-.5,1.7.2,2.2s1.8.4,2.3-.3c1.9-2.3,1.6-5,.9-6.9-1.3-3.9-5.2-5.8-8.5-6.1-6.2-.4-10.6,5.3-11.8,7.1-.6.8-2.4,3.8-2.7,8.3-.4,5.6,2.4,11.2,7.2,14.3,2.6,1.7,5.4,2.6,8.2,2.6.6,0,1.2,0,1.8-.1,5.7-.8,9.7-4.8,10.5-5.7,0,0,0,0,0,0-1.1-.4-1.9-1.2-2.5-2.2h0Z"/>
  </g>
</svg>