<?xml version="1.0" encoding="UTF-8"?>
<svg id="a" xmlns="http://www.w3.org/2000/svg" version="1.1" viewBox="0 0 117 117">
  <!-- Generator: Adobe Illustrator 29.5.0, SVG Export Plug-In . SVG Version: 2.1.0 Build 137)  -->
  <defs>
    <style>
      .st0 {
        fill: #010101;
      }

      .st1 {
        fill: #d71f29;
      }
    </style>
  </defs>
  <path class="st1" d="M61.9,44.9c.5.3,1.1.6,1.6.9.9.5,1.8,1,2.1,1.3.7.6.8,1.5.8,1.5s0,0,0,0v.4s.2-.1.2-.1c0-1.1.5-2.2,1.6-2.9.6-.4,1.3-.6,2-.5.4,0,.8,0,1.3,0v-.8s-.2-2.1-.2-2.1c-.3-3.6-.6-5.4-.7-5.4-.2,0-.2,1.9-.1,5.7,0,.6-.2.9-.4,1-.2,0-.3-.2-.5-.5,0,0,0-.3-.2-.6-2.7-8.5-2.7-8.5-3-8.4,0,0-.2,0-.2.3,0,.3.4,1.4.8,2.8.7,2.1,1.9,6,1.7,6.6-.2-.1-.8-.9-1.3-2.6-.2-.8-.7-1.4-1.1-1.5-.2,0-.3,0-.4.2-.2.3,0,.9.6,1.8.9,1.3,1.3,2.2,1.3,2.5,0,.2,0,.3-.1.4,0,0-.3,0-1-.4-1.2-.9-1.5-.9-1.6-.7-.3.4,1,1.6,1.3,1.9.1.1.1.2.2.2,0,0-.5.4-3.9-1.4-2.5-1.4-3.9-2-4-1.8,0,.2,1.1,1,3.5,2.4h0Z"/>
  <circle class="st1" cx="64.8" cy="47.9" r=".5"/>
  <circle class="st1" cx="64" cy="41.4" r=".6"/>
  <circle class="st1" cx="82.7" cy="36.2" r=".7"/>
  <circle class="st1" cx="75.6" cy="34.1" r=".6"/>
  <path class="st1" d="M80.7,33.9c0,0,.1,0,.1.2,0,.2,0,.4,0,.5-.2.2-.5.3-.7.1s-.3-.5-.1-.7.5-.3.7-.1h0Z"/>
  <circle class="st1" cx="73.1" cy="34.3" r=".4"/>
  <circle class="st1" cx="77.4" cy="36.6" r=".4"/>
  <circle class="st1" cx="77.9" cy="31.5" r=".4"/>
  <path class="st0" d="M88.5,59.6h0c-1-5.2-4-9-9.6-12-3.2-1.7-6.8-2.5-9-2.3-.7,0-1.4.2-2,.5-1.6,1-2,3.1-1,4.7,4.4,6.8,2.3,10.5-.4,15.2-4.6,1.4-8.5,4.1-11.2,8.3-2.7,4.2-4.2,9.4-4.2,14.7s1.5,3.4,3.4,3.4,3.4-1.5,3.4-3.4c0-7,2.9-12,6.6-14.8.4,5.6,3.8,11.6,7,16.7.7,1,1.7,1.6,2.9,1.6s1.3-.2,1.8-.5c1.6-1,2-3.1,1-4.7-5.3-8.1-7-13.6-5.4-16.8.1-.2.3-.4.3-.6h0c1.2-2.1,2.6-4.4,3.3-7.1.7,2.2.9,3.9.6,6,0,.7.1,1.5.6,2,.5.6,1.1.9,1.9,1,0,0,.2,0,.3,0,1.4,0,2.6-1.1,2.8-2.5.6-6.2-2.7-12.3-5.5-16.6,3.2,2.3,6.1,5.5,6.7,8.4.3,1.5,1.7,2.5,3.2,2.2h0c1.5-.3,2.5-1.8,2.2-3.3h0Z"/>
  <path class="st0" d="M52.7,48.3l-1.2-.9c.2-.7-.5-1.9-1.9-2.9-1.3-.9-2.6-1.2-3.2-.9l-1.4-1c0,0-.1,0-.2-.1l.5-.7c.2-.2.1-.6-.1-.7-.2-.2-.6-.1-.7.1l-.7.9-3-2.2c.6-1,.9-2.2.9-3.4,0-3.8-3.1-7-7-7s-3.8.9-5.1,2.2l-9-6.7h-4.5l12.1,8.9c-.3.8-.5,1.6-.5,2.5,0,3.8,3.1,7,7,7s3.1-.6,4.3-1.5l3.2,2.4-.7.9c-.2.2-.1.6.1.7,0,0,.2.1.3.1.2,0,.3,0,.4-.2l.5-.7c0,0,.1.1.2.2l1.7,1.3c-.3.8-1,2.2-1.9,2.6-1,.4-4.6.2-11.1-3.5-1.3-.7-3.4-.8-5.3,1-1.9,1.8-3.4,5.2-4,8.8-.5,3.2-.5,8.2,2.2,13.6,2.3,4.5-.2,10.8-6.8,17.2-1.4,1.3-1.4,3.5,0,4.8.7.7,1.6,1,2.5,1s1.7-.3,2.4-1c4.5-4.4,7.5-8.8,8.9-13.1.5-1.5.7-2.9.8-4.4,3.9,2.8,6.9,7.9,6.9,15.1s1.5,3.4,3.4,3.4,3.4-1.5,3.4-3.4c0-5.3-1.5-10.5-4.2-14.7-2.8-4.2-6.6-6.9-11.2-8.3-2.7-5.6-1.3-10.7-.2-13,7.9,4,12.5,3.8,15,2.8,2.6-1.1,4.1-3,5-4.7l.3.2c.3.2.6.3,1,.3.5,0,1-.2,1.3-.7.5-.7.4-1.7-.3-2.3h0Z"/>
  <ellipse class="st1" cx="93.8" cy="90.6" rx="7.2" ry="1.5"/>
  <path class="st0" d="M93.8,78.1c-3.8,0-7,3.1-7,7s1.1,4.2,2.7,5.5c.5.3,2,.6,4.3.6s3.8-.3,4.3-.6c0,0,.1,0,.2-.1,0,0,0,0,0,0h0c1.5-1.3,2.5-3.2,2.5-5.3,0-3.8-3.1-7-7-7h0Z"/>
</svg>